<svg width="20" height="21" viewBox="0 0 20 21" fill="none" xmlns="http://www.w3.org/2000/svg">
<path fill-rule="evenodd" clip-rule="evenodd" d="M7.6856 5.86877C8.09982 5.86877 8.4356 6.20456 8.4356 6.61877V15.1643C8.4356 15.5785 8.09982 15.9143 7.6856 15.9143C7.27139 15.9143 6.9356 15.5785 6.9356 15.1643V6.61877C6.9356 6.20456 7.27139 5.86877 7.6856 5.86877ZM5.51367 8.77486C5.92789 8.77486 6.26367 9.11065 6.26367 9.52486V12.2006C6.26367 12.6148 5.92789 12.9506 5.51367 12.9506C5.09946 12.9506 4.76367 12.6148 4.76367 12.2006V9.52486C4.76367 9.11065 5.09946 8.77486 5.51367 8.77486ZM10.7817 9.40645C10.7817 8.99224 10.4459 8.65645 10.0317 8.65645C9.6175 8.65645 9.28171 8.99224 9.28171 9.40645V12.3833C9.28171 12.7975 9.6175 13.1333 10.0317 13.1333C10.4459 13.1333 10.7817 12.7975 10.7817 12.3833V9.40645ZM12.2086 7.18795C12.6228 7.18794 12.9586 7.52373 12.9586 7.93794L12.9587 13.8854C12.9587 14.2996 12.623 14.6354 12.2087 14.6354C11.7945 14.6354 11.4587 14.2996 11.4587 13.8854L11.4586 7.93796C11.4586 7.52374 11.7944 7.18795 12.2086 7.18795ZM15.1552 10.1539C15.1552 9.73972 14.8194 9.40393 14.4052 9.40393C13.991 9.40393 13.6552 9.73972 13.6552 10.1539V11.612C13.6552 12.0262 13.991 12.362 14.4052 12.362C14.8194 12.362 15.1552 12.0262 15.1552 11.612V10.1539Z" fill="#F18A02"/>
<path d="M13.8963 2.57166H6.11113C3.27409 2.57166 1.66669 4.17906 1.66669 7.0161V14.7939C1.66669 17.6309 3.27409 19.2383 6.11113 19.2383H13.8963C16.7334 19.2383 18.3334 17.6309 18.3334 14.7939V7.0161C18.3334 4.17906 16.7334 2.57166 13.8963 2.57166" stroke="#F18A02" stroke-width="1.5"/>
</svg>
