<svg width="20" height="21" viewBox="0 0 20 21" fill="none" xmlns="http://www.w3.org/2000/svg">
<path fill-rule="evenodd" clip-rule="evenodd" d="M7.6856 5.46375C8.09982 5.46375 8.4356 5.79953 8.4356 6.21375V14.7593C8.4356 15.1735 8.09982 15.5093 7.6856 15.5093C7.27139 15.5093 6.9356 15.1735 6.9356 14.7593V6.21375C6.9356 5.79953 7.27139 5.46375 7.6856 5.46375ZM5.51367 8.36983C5.92789 8.36983 6.26367 8.70562 6.26367 9.11983V11.7956C6.26367 12.2098 5.92789 12.5456 5.51367 12.5456C5.09946 12.5456 4.76367 12.2098 4.76367 11.7956V9.11983C4.76367 8.70562 5.09946 8.36983 5.51367 8.36983ZM10.7817 9.00142C10.7817 8.58721 10.4459 8.25142 10.0317 8.25142C9.6175 8.25142 9.28171 8.58721 9.28171 9.00142L9.28171 11.9783C9.28171 12.3925 9.6175 12.7283 10.0317 12.7283C10.4459 12.7283 10.7817 12.3925 10.7817 11.9783V9.00142ZM12.2086 6.78292C12.6228 6.78291 12.9586 7.1187 12.9586 7.53291L12.9587 13.4803C12.9587 13.8945 12.623 14.2303 12.2087 14.2303C11.7945 14.2303 11.4587 13.8946 11.4587 13.4804L11.4586 7.53293C11.4586 7.11871 11.7944 6.78292 12.2086 6.78292ZM15.1552 9.7489C15.1552 9.33469 14.8194 8.9989 14.4052 8.9989C13.991 8.9989 13.6552 9.33469 13.6552 9.7489V11.207C13.6552 11.6212 13.991 11.957 14.4052 11.957C14.8194 11.957 15.1552 11.6212 15.1552 11.207V9.7489Z" fill="#838795"/>
<path d="M13.8963 2.16663H6.11113C3.27409 2.16663 1.66669 3.77403 1.66669 6.61107V14.3888C1.66669 17.2259 3.27409 18.8333 6.11113 18.8333H13.8963C16.7334 18.8333 18.3334 17.2259 18.3334 14.3888V6.61107C18.3334 3.77403 16.7334 2.16663 13.8963 2.16663" stroke="#838795" stroke-width="1.5"/>
</svg>
