<svg width="41" height="41" viewBox="0 0 41 41" fill="none" xmlns="http://www.w3.org/2000/svg">
<path opacity="0.4" d="M27.0073 3.89481H13.039C7.97234 3.89481 5.02234 6.86147 5.02234 11.9448V29.1615C5.02234 34.3281 7.97234 37.2281 13.039 37.2281H27.0073C32.1557 37.2281 35.0223 34.3281 35.0223 29.1615V11.9448C35.0223 6.86147 32.1557 3.89481 27.0073 3.89481Z" fill="#C357F6"/>
<path fill-rule="evenodd" clip-rule="evenodd" d="M13.4891 11.6448V11.6615C12.7707 11.6615 12.1891 12.2448 12.1891 12.9615C12.1891 13.6781 12.7707 14.2615 13.4891 14.2615H18.4707C19.1891 14.2615 19.7724 13.6781 19.7724 12.9431C19.7724 12.2281 19.1891 11.6448 18.4707 11.6448H13.4891ZM26.5557 21.7948H13.4891C12.7707 21.7948 12.1891 21.2115 12.1891 20.4948C12.1891 19.7781 12.7707 19.1931 13.4891 19.1931H26.5557C27.2724 19.1931 27.8557 19.7781 27.8557 20.4948C27.8557 21.2115 27.2724 21.7948 26.5557 21.7948ZM26.5557 29.4115H13.4891C12.9891 29.4781 12.5057 29.2281 12.2391 28.8115C11.9724 28.3781 11.9724 27.8281 12.2391 27.4115C12.5057 26.9781 12.9891 26.7448 13.4891 26.7948H26.5557C27.2207 26.8615 27.7224 27.4281 27.7224 28.1115C27.7224 28.7765 27.2207 29.3448 26.5557 29.4115Z" fill="#C357F6"/>
</svg>
