<svg width="60" height="61" viewBox="0 0 60 61" fill="none" xmlns="http://www.w3.org/2000/svg">
<path opacity="0.4" d="M42.2108 13.3823H34.8531C33.0202 13.3944 31.28 12.579 30.1184 11.1639L27.6955 7.81421C26.5534 6.38669 24.8132 5.56752 22.983 5.59587H17.7815C8.44547 5.59587 5.00003 11.0752 5.00003 20.3922V30.4635C4.98841 31.5711 54.9891 31.5697 54.9923 30.4635V27.5353C55.0368 18.2183 51.6802 13.3823 42.2108 13.3823Z" fill="#0269F1"/>
<path fill-rule="evenodd" clip-rule="evenodd" d="M52.0803 16.9538C52.8802 17.889 53.4983 18.9648 53.9031 20.126C54.6996 22.5128 55.0683 25.0209 54.9923 27.5353V40.6679C54.9891 41.7741 54.9074 42.8786 54.7478 43.9733C54.4438 45.9051 53.7642 47.7589 52.7472 49.4304C52.2797 50.2378 51.7121 50.9831 51.0578 51.6488C48.0958 54.3673 44.1624 55.7823 40.1435 55.5752H19.8265C15.8012 55.7808 11.8615 54.3664 8.89002 51.6488C8.24351 50.9818 7.68341 50.2365 7.22287 49.4304C6.21187 47.7601 5.54672 45.9045 5.26675 43.9733C5.08872 42.8805 4.99952 41.7751 5 40.6679V27.5353C4.99957 26.4385 5.05893 25.3425 5.17783 24.2522C5.20283 24.0609 5.24034 23.8727 5.27745 23.6865C5.33932 23.376 5.40012 23.0709 5.40012 22.7659C5.62576 21.4501 6.0374 20.1729 6.6227 18.9725C8.35653 15.2679 11.9131 13.3823 17.737 13.3823H42.1886C45.4506 13.13 48.6882 14.112 51.2579 16.133C51.5538 16.384 51.8289 16.6585 52.0803 16.9538ZM17.4258 39.4479H42.5887H42.6332C43.1853 39.4718 43.724 39.2742 44.1292 38.8991C44.5343 38.524 44.772 38.0026 44.7893 37.4513C44.8206 36.9668 44.661 36.4893 44.3448 36.1203C43.9809 35.6246 43.4045 35.3287 42.7888 35.3217H17.4258C16.2841 35.3217 15.3586 36.2454 15.3586 37.3848C15.3586 38.5242 16.2841 39.4479 17.4258 39.4479Z" fill="#0269F1"/>
</svg>
