<svg width="40" height="41" viewBox="0 0 40 41" fill="none" xmlns="http://www.w3.org/2000/svg">
<path opacity="0.4" d="M10.745 37.2281C6.66001 37.2281 3.33334 33.8444 3.33334 29.6873L3.33334 21.4187C3.33334 17.2701 6.65001 13.8948 10.7283 13.8948H29.255C33.3417 13.8948 36.6667 17.2785 36.6667 21.4374V29.7025C36.6667 33.8529 33.35 37.2281 29.2717 37.2281H27.705H10.745Z" fill="#00A5D9"/>
<path d="M19.0914 4.26328L14.243 9.00626C13.743 9.49646 13.743 10.2853 14.2464 10.7739C14.7497 11.2609 15.5614 11.2593 16.0614 10.7707L18.7164 8.17193V10.6635V24.6474C18.7164 25.3372 19.2914 25.8972 19.9997 25.8972C20.7097 25.8972 21.283 25.3372 21.283 24.6474V8.17193L23.938 10.7707C24.438 11.2593 25.2497 11.2609 25.753 10.7739C26.0047 10.5288 26.1314 10.209 26.1314 9.88765C26.1314 9.56951 26.0047 9.24973 25.7564 9.00626L20.9097 4.26328C20.668 4.02791 20.3414 3.89481 19.9997 3.89481C19.6597 3.89481 19.333 4.02791 19.0914 4.26328Z" fill="#00A5D9"/>
</svg>
