<svg width="24" height="25" viewBox="0 0 24 25" fill="none" xmlns="http://www.w3.org/2000/svg">
<path d="M17.8877 11.087C19.2827 10.891 20.3567 9.695 20.3597 8.246C20.3597 6.818 19.3187 5.634 17.9537 5.41" stroke="#012545" stroke-width="1.5" stroke-linecap="round" stroke-linejoin="round"/>
<path d="M19.7285 14.4406C21.0795 14.6426 22.0225 15.1156 22.0225 16.0906C22.0225 16.7616 21.5785 17.1976 20.8605 17.4716" stroke="#012545" stroke-width="1.5" stroke-linecap="round" stroke-linejoin="round"/>
<path fill-rule="evenodd" clip-rule="evenodd" d="M11.8867 14.8541C8.6727 14.8541 5.9277 15.3411 5.9277 17.2861C5.9277 19.2301 8.6557 19.7311 11.8867 19.7311C15.1007 19.7311 17.8447 19.2491 17.8447 17.3031C17.8447 15.3571 15.1177 14.8541 11.8867 14.8541Z" stroke="#012545" stroke-width="1.5" stroke-linecap="round" stroke-linejoin="round"/>
<path fill-rule="evenodd" clip-rule="evenodd" d="M11.8867 12.0782C13.9957 12.0782 15.7057 10.3692 15.7057 8.25922C15.7057 6.15022 13.9957 4.44022 11.8867 4.44022C9.7777 4.44022 8.0677 6.15022 8.0677 8.25922C8.0597 10.3612 9.7567 12.0712 11.8587 12.0782H11.8867Z" stroke="#012545" stroke-width="1.5" stroke-linecap="round" stroke-linejoin="round"/>
<path d="M5.8848 11.087C4.4888 10.891 3.4158 9.695 3.4128 8.246C3.4128 6.818 4.4538 5.634 5.8188 5.41" stroke="#012545" stroke-width="1.5" stroke-linecap="round" stroke-linejoin="round"/>
<path d="M4.0439 14.4406C2.6929 14.6426 1.7499 15.1156 1.7499 16.0906C1.7499 16.7616 2.1939 17.1976 2.9119 17.4716" stroke="#012545" stroke-width="1.5" stroke-linecap="round" stroke-linejoin="round"/>
</svg>
