<svg width="60" height="61" viewBox="0 0 60 61" fill="none" xmlns="http://www.w3.org/2000/svg">
<path d="M23.3733 37.7395C13.4638 37.7395 5 39.2703 5 45.3886C5 51.5117 13.41 53.0951 23.3733 53.0951C33.2828 53.0951 41.7467 51.5644 41.7467 45.4461C41.7467 39.323 33.3367 37.7395 23.3733 37.7395Z" fill="#0269F1"/>
<path opacity="0.4" d="M23.3734 31.9072C30.1224 31.9072 35.5309 26.6106 35.5309 20.0012C35.5309 13.3918 30.1224 8.09515 23.3734 8.09515C16.6268 8.09515 11.2158 13.3918 11.2158 20.0012C11.2158 26.6106 16.6268 31.9072 23.3734 31.9072Z" fill="#0269F1"/>
<path opacity="0.4" d="M40.4336 20.217C40.4336 23.5828 39.4013 26.7234 37.5911 29.3322C37.4027 29.6005 37.5691 29.9622 37.8969 30.0197C38.3519 30.094 38.8191 30.1395 39.2961 30.1491C44.0417 30.2713 48.3005 27.2792 49.4771 22.7731C51.2213 16.087 46.1038 10.0837 39.5847 10.0837C38.8778 10.0837 38.2002 10.1556 37.5397 10.2873C37.4492 10.3065 37.3514 10.3496 37.3024 10.4263C37.2388 10.5245 37.2853 10.6515 37.3489 10.7353C39.3083 13.4256 40.4336 16.7003 40.4336 20.217Z" fill="#0269F1"/>
<path d="M54.4477 38.5185C53.5793 36.7051 51.483 35.4618 48.2931 34.8509C46.7887 34.4916 42.7134 33.9813 38.9242 34.0532C38.868 34.0604 38.8362 34.0987 38.8313 34.1226C38.8239 34.161 38.8411 34.2185 38.9144 34.2592C40.6659 35.1072 47.4345 38.7964 46.5832 46.5773C46.5466 46.9174 46.823 47.2049 47.1679 47.157C48.8337 46.9246 53.1195 46.0215 54.4477 43.2139C55.184 41.7286 55.184 40.0038 54.4477 38.5185Z" fill="#0269F1"/>
</svg>
