<svg width="41" height="41" viewBox="0 0 41 41" fill="none" xmlns="http://www.w3.org/2000/svg">
<path opacity="0.4" d="M35.8924 12.9657C35.194 12.5258 34.3357 12.4868 33.604 12.8591L31.134 14.1061C30.2207 14.5664 29.654 15.497 29.654 16.5325V26.255C29.654 27.2906 30.2207 28.2195 31.134 28.6831L33.6024 29.9285C33.9374 30.1011 34.2957 30.184 34.654 30.184C35.084 30.184 35.5107 30.0621 35.8924 29.8236C36.5907 29.3853 37.0074 28.6256 37.0074 27.7931V14.9978C37.0074 14.1654 36.5907 13.4056 35.8924 12.9657Z" fill="#0269F1"/>
<path d="M20.1826 33.8948H10.5291C6.49243 33.8948 3.67407 31.1114 3.67407 27.1266V15.663C3.67407 11.6765 6.49243 8.89481 10.5291 8.89481H20.1826C24.2193 8.89481 27.0376 11.6765 27.0376 15.663V27.1266C27.0376 31.1114 24.2193 33.8948 20.1826 33.8948Z" fill="#0269F1"/>
</svg>
