<svg width="20" height="21" viewBox="0 0 20 21" fill="none" xmlns="http://www.w3.org/2000/svg">
<path fill-rule="evenodd" clip-rule="evenodd" d="M13.5807 13.8536C13.6481 15.3803 12.416 16.6713 10.8288 16.7362C10.7119 16.7411 5.01274 16.7296 5.01274 16.7296C3.43328 16.8495 2.05094 15.7146 1.92636 14.1936C1.91697 14.0802 1.91953 7.96515 1.91953 7.96515C1.84956 6.43678 3.08002 5.14248 4.66801 5.07514C4.78661 5.06939 10.4781 5.08006 10.4781 5.08006C12.0653 4.9618 13.4519 6.105 13.5747 7.63336C13.5833 7.74341 13.5807 13.8536 13.5807 13.8536Z" stroke="#0269F1" stroke-width="1.5" stroke-linecap="round" stroke-linejoin="round"/>
<path d="M13.5834 9.22148L16.3275 6.97565C17.0075 6.41898 18.0275 6.90398 18.0267 7.78148L18.0167 13.9056C18.0159 14.7831 16.995 15.264 16.3167 14.7073L13.5834 12.4615" stroke="#0269F1" stroke-width="1.5" stroke-linecap="round" stroke-linejoin="round"/>
</svg>
