<svg width="40" height="41" viewBox="0 0 40 41" fill="none" xmlns="http://www.w3.org/2000/svg">
<path opacity="0.4" d="M32.5521 16.4713C31.6609 16.4713 30.9376 17.184 30.9376 18.0657C30.9376 24.0208 26.031 28.8663 20.0008 28.8663C13.9689 28.8663 9.06237 24.0208 9.06237 18.0657C9.06237 17.184 8.33906 16.4713 7.44784 16.4713C6.55662 16.4713 5.83331 17.184 5.83331 18.0657C5.83331 25.2406 11.3324 31.1638 18.3863 31.9594V35.1674C18.3863 36.0475 19.108 36.7618 20.0008 36.7618C20.892 36.7618 21.6153 36.0475 21.6153 35.1674V31.9594C28.6676 31.1638 34.1666 25.2406 34.1666 18.0657C34.1666 17.184 33.4433 16.4713 32.5521 16.4713Z" fill="#FD7620"/>
<path d="M19.7076 25.4569H20.2921C24.2961 25.4569 27.5445 22.2506 27.5445 18.2964V10.5906C27.5445 6.63327 24.2961 3.4285 20.2921 3.4285H19.7076C15.7036 3.4285 12.4551 6.63327 12.4551 10.5906V18.2964C12.4551 22.2506 15.7036 25.4569 19.7076 25.4569Z" fill="#FD7620"/>
</svg>
