<svg width="375" height="445" viewBox="0 0 375 445" fill="none" xmlns="http://www.w3.org/2000/svg">
<path d="M0 2.46777C0 2.46777 48.1784 19.8888 92.3328 20.4678C136.487 21.0468 211.986 0.467773 277.098 0.467773C342.209 0.467773 375.862 14.4678 375.862 14.4678V438.364C375.862 438.364 333.378 424.364 277.098 424.364C220.817 424.364 138.719 444.364 92.3328 444.364C45.9468 444.364 0 426.364 0 426.364V2.46777Z" fill="#F18A02"/>
<path d="M492.664 243.473C490.517 235.625 486.981 228.417 481.679 223.611C473.345 215.924 462.36 215.123 452.511 216.244C427.007 219.127 403.017 234.983 380.29 248.758C369.81 255.165 359.33 261.891 348.219 266.536C332.436 273.263 316.906 281.271 300.744 286.076C284.582 290.881 268.547 291.202 252.638 284.474C238.244 278.389 224.86 268.779 212.991 256.926C188.37 232.421 170.946 198.947 156.931 163.87C149.86 146.253 143.926 127.993 137.234 110.055C131.173 94.199 123.976 78.502 112.866 67.4511C102.133 56.8798 88.8751 51.7552 75.4913 50.1537C61.9818 48.5512 47.588 49.9931 34.3299 54.6381C10.4667 63.1262 -9.8619 83.4682 -26.6548 106.051C-33.978 115.981 -40.6699 126.391 -46.9831 137.283C-47.6144 139.685 -48.1195 142.248 -48.7507 144.65C-45.2154 138.404 -41.6801 132.318 -37.8922 126.232C-22.2356 101.406 -3.42248 78.0224 19.5572 64.2481C31.0474 57.2009 43.2946 53.6768 56.0472 52.3954C70.6934 50.9545 85.9715 52.3954 99.4819 59.9232C127.007 75.4596 136.477 114.379 148.219 146.253C161.097 181.169 176.249 215.604 197.966 242.992C207.941 255.644 219.305 266.696 231.679 275.184C244.052 283.674 257.815 290.56 271.956 291.842C287.739 293.284 303.27 288.158 318.042 282.072C325.744 278.869 333.32 275.345 341.022 271.982C346.83 269.419 352.638 267.177 358.32 264.134C381.552 251.801 403.522 235.625 427.512 225.694C445.693 218.167 474.482 209.838 487.108 234.343C489.507 238.987 491.148 244.113 492.158 249.559C492.285 247.476 492.537 245.555 492.664 243.473Z" fill="#FFBA20"/>
<mask id="path-3-inside-1_2030_2463" fill="white">
<path d="M207.172 403.556H200.671V380.283C200.671 379.829 200.581 379.405 200.399 379.011C200.232 378.617 199.997 378.276 199.694 377.988C199.406 377.685 199.065 377.45 198.671 377.283C198.278 377.117 197.853 377.033 197.399 377.033C196.944 377.033 196.52 377.117 196.126 377.283C195.732 377.45 195.384 377.685 195.081 377.988C194.793 378.276 194.565 378.617 194.399 379.011C194.232 379.405 194.149 379.829 194.149 380.283V403.556H187.626V380.283C187.626 379.829 187.543 379.405 187.376 379.011C187.209 378.617 186.974 378.276 186.671 377.988C186.383 377.685 186.043 377.45 185.649 377.283C185.255 377.117 184.83 377.033 184.376 377.033C183.921 377.033 183.497 377.117 183.103 377.283C182.709 377.45 182.361 377.685 182.058 377.988C181.77 378.276 181.542 378.617 181.376 379.011C181.209 379.405 181.126 379.829 181.126 380.283V403.556H174.603V380.283C174.603 378.935 174.853 377.67 175.353 376.488C175.868 375.291 176.565 374.253 177.444 373.374C178.338 372.48 179.376 371.783 180.558 371.283C181.755 370.768 183.027 370.51 184.376 370.51C185.588 370.51 186.755 370.73 187.876 371.17C188.997 371.594 190.005 372.215 190.899 373.033C191.793 372.215 192.793 371.594 193.899 371.17C195.02 370.73 196.187 370.51 197.399 370.51C198.747 370.51 200.012 370.768 201.194 371.283C202.391 371.783 203.429 372.48 204.308 373.374C205.202 374.253 205.899 375.291 206.399 376.488C206.914 377.67 207.172 378.935 207.172 380.283V403.556Z"/>
<path d="M221.763 397.602C222.005 397.677 222.247 397.73 222.49 397.761C222.732 397.776 222.975 397.784 223.217 397.784C223.823 397.784 224.407 397.7 224.967 397.534C225.528 397.367 226.051 397.132 226.535 396.829C227.035 396.511 227.475 396.132 227.854 395.693C228.248 395.238 228.566 394.738 228.808 394.193L233.354 398.761C232.778 399.579 232.111 400.314 231.354 400.965C230.611 401.617 229.801 402.17 228.922 402.624C228.058 403.079 227.141 403.42 226.172 403.647C225.217 403.89 224.232 404.011 223.217 404.011C221.505 404.011 219.891 403.693 218.376 403.056C216.876 402.42 215.558 401.534 214.422 400.397C213.3 399.261 212.414 397.912 211.763 396.352C211.111 394.776 210.785 393.049 210.785 391.17C210.785 389.246 211.111 387.488 211.763 385.897C212.414 384.306 213.3 382.95 214.422 381.829C215.558 380.708 216.876 379.836 218.376 379.215C219.891 378.594 221.505 378.283 223.217 378.283C224.232 378.283 225.225 378.405 226.194 378.647C227.164 378.889 228.081 379.238 228.945 379.692C229.823 380.147 230.642 380.708 231.399 381.374C232.157 382.026 232.823 382.761 233.399 383.579L221.763 397.602ZM224.944 384.806C224.657 384.7 224.369 384.632 224.081 384.602C223.808 384.571 223.52 384.556 223.217 384.556C222.369 384.556 221.566 384.715 220.808 385.033C220.066 385.336 219.414 385.776 218.854 386.352C218.308 386.927 217.876 387.624 217.558 388.442C217.24 389.246 217.081 390.155 217.081 391.17C217.081 391.397 217.088 391.655 217.103 391.943C217.134 392.23 217.172 392.526 217.217 392.829C217.278 393.117 217.346 393.397 217.422 393.67C217.497 393.943 217.596 394.185 217.717 394.397L224.944 384.806Z"/>
<path d="M242.74 403.556H236.536V379.215H238.036L240.081 381.579C241.081 380.67 242.21 379.973 243.467 379.488C244.74 378.988 246.066 378.738 247.445 378.738C248.93 378.738 250.331 379.026 251.649 379.601C252.968 380.162 254.119 380.942 255.104 381.942C256.089 382.927 256.862 384.086 257.422 385.42C257.998 386.738 258.286 388.147 258.286 389.647V403.556H252.081V389.647C252.081 389.011 251.96 388.412 251.718 387.852C251.475 387.276 251.142 386.776 250.717 386.352C250.293 385.927 249.801 385.594 249.24 385.352C248.68 385.109 248.081 384.988 247.445 384.988C246.793 384.988 246.18 385.109 245.604 385.352C245.028 385.594 244.528 385.927 244.104 386.352C243.68 386.776 243.346 387.276 243.104 387.852C242.861 388.412 242.74 389.011 242.74 389.647V403.556Z"/>
<path d="M274.604 403.556C273.104 403.556 271.695 403.276 270.377 402.715C269.059 402.14 267.899 401.359 266.899 400.374C265.915 399.374 265.134 398.215 264.559 396.897C263.998 395.579 263.718 394.17 263.718 392.67V385.442H260.695V379.261H263.718V369.533H269.9V379.261H279.309V385.442H269.9V392.67C269.9 393.321 270.021 393.935 270.263 394.511C270.506 395.071 270.839 395.564 271.263 395.988C271.687 396.412 272.187 396.753 272.763 397.011C273.339 397.253 273.953 397.374 274.604 397.374H279.309V403.556H274.604Z"/>
<path d="M306.332 391.17C306.332 392.988 306.006 394.685 305.354 396.261C304.703 397.821 303.817 399.177 302.695 400.329C301.574 401.465 300.256 402.367 298.741 403.034C297.241 403.685 295.627 404.011 293.9 404.011C292.188 404.011 290.574 403.685 289.059 403.034C287.559 402.367 286.241 401.465 285.104 400.329C283.983 399.177 283.097 397.821 282.445 396.261C281.794 394.685 281.468 392.988 281.468 391.17C281.468 389.321 281.794 387.609 282.445 386.033C283.097 384.458 283.983 383.102 285.104 381.965C286.241 380.814 287.559 379.912 289.059 379.261C290.574 378.609 292.188 378.283 293.9 378.283C295.627 378.283 297.241 378.594 298.741 379.215C300.256 379.821 301.574 380.692 302.695 381.829C303.817 382.95 304.703 384.306 305.354 385.897C306.006 387.473 306.332 389.23 306.332 391.17ZM300.082 391.17C300.082 390.17 299.915 389.268 299.582 388.465C299.263 387.647 298.824 386.95 298.263 386.374C297.703 385.783 297.044 385.336 296.286 385.033C295.544 384.715 294.748 384.556 293.9 384.556C293.051 384.556 292.248 384.715 291.491 385.033C290.748 385.336 290.097 385.783 289.536 386.374C288.991 386.95 288.559 387.647 288.241 388.465C287.922 389.268 287.763 390.17 287.763 391.17C287.763 392.109 287.922 392.98 288.241 393.783C288.559 394.587 288.991 395.283 289.536 395.874C290.097 396.465 290.748 396.935 291.491 397.284C292.248 397.617 293.051 397.784 293.9 397.784C294.748 397.784 295.544 397.624 296.286 397.306C297.044 396.988 297.703 396.541 298.263 395.965C298.824 395.39 299.263 394.693 299.582 393.874C299.915 393.056 300.082 392.155 300.082 391.17Z"/>
<path d="M315.968 403.556H309.764V379.215H311.264L313.309 382.102C314.309 381.192 315.445 380.495 316.718 380.011C317.991 379.511 319.309 379.261 320.673 379.261H326.15V385.442H320.673C320.021 385.442 319.408 385.564 318.832 385.806C318.256 386.049 317.756 386.382 317.332 386.806C316.908 387.23 316.574 387.73 316.332 388.306C316.089 388.882 315.968 389.496 315.968 390.147V403.556Z"/>
<path d="M342.128 403.556H327.946V397.374H342.128C342.552 397.374 342.915 397.223 343.219 396.92C343.522 396.617 343.673 396.253 343.673 395.829C343.673 395.39 343.522 395.102 343.219 394.965C342.915 394.829 342.552 394.761 342.128 394.761H335.673C334.597 394.761 333.59 394.556 332.65 394.147C331.711 393.738 330.893 393.185 330.196 392.488C329.499 391.776 328.946 390.95 328.537 390.011C328.143 389.071 327.946 388.064 327.946 386.988C327.946 385.912 328.143 384.905 328.537 383.965C328.946 383.026 329.499 382.208 330.196 381.511C330.893 380.814 331.711 380.268 332.65 379.874C333.59 379.465 334.597 379.261 335.673 379.261H348.241V385.442H335.673C335.249 385.442 334.885 385.594 334.582 385.897C334.279 386.2 334.128 386.564 334.128 386.988C334.128 387.427 334.279 387.806 334.582 388.124C334.885 388.427 335.249 388.579 335.673 388.579H342.128C343.188 388.579 344.188 388.761 345.128 389.124C346.067 389.473 346.885 389.965 347.582 390.602C348.279 391.238 348.832 392.003 349.241 392.897C349.65 393.791 349.855 394.768 349.855 395.829C349.855 396.905 349.65 397.912 349.241 398.852C348.832 399.776 348.279 400.594 347.582 401.306C346.885 402.003 346.067 402.556 345.128 402.965C344.188 403.359 343.188 403.556 342.128 403.556Z"/>
</mask>
<path d="M207.172 403.556H200.671V380.283C200.671 379.829 200.581 379.405 200.399 379.011C200.232 378.617 199.997 378.276 199.694 377.988C199.406 377.685 199.065 377.45 198.671 377.283C198.278 377.117 197.853 377.033 197.399 377.033C196.944 377.033 196.52 377.117 196.126 377.283C195.732 377.45 195.384 377.685 195.081 377.988C194.793 378.276 194.565 378.617 194.399 379.011C194.232 379.405 194.149 379.829 194.149 380.283V403.556H187.626V380.283C187.626 379.829 187.543 379.405 187.376 379.011C187.209 378.617 186.974 378.276 186.671 377.988C186.383 377.685 186.043 377.45 185.649 377.283C185.255 377.117 184.83 377.033 184.376 377.033C183.921 377.033 183.497 377.117 183.103 377.283C182.709 377.45 182.361 377.685 182.058 377.988C181.77 378.276 181.542 378.617 181.376 379.011C181.209 379.405 181.126 379.829 181.126 380.283V403.556H174.603V380.283C174.603 378.935 174.853 377.67 175.353 376.488C175.868 375.291 176.565 374.253 177.444 373.374C178.338 372.48 179.376 371.783 180.558 371.283C181.755 370.768 183.027 370.51 184.376 370.51C185.588 370.51 186.755 370.73 187.876 371.17C188.997 371.594 190.005 372.215 190.899 373.033C191.793 372.215 192.793 371.594 193.899 371.17C195.02 370.73 196.187 370.51 197.399 370.51C198.747 370.51 200.012 370.768 201.194 371.283C202.391 371.783 203.429 372.48 204.308 373.374C205.202 374.253 205.899 375.291 206.399 376.488C206.914 377.67 207.172 378.935 207.172 380.283V403.556Z" stroke="#FFBA20" stroke-width="2" mask="url(#path-3-inside-1_2030_2463)"/>
<path d="M221.763 397.602C222.005 397.677 222.247 397.73 222.49 397.761C222.732 397.776 222.975 397.784 223.217 397.784C223.823 397.784 224.407 397.7 224.967 397.534C225.528 397.367 226.051 397.132 226.535 396.829C227.035 396.511 227.475 396.132 227.854 395.693C228.248 395.238 228.566 394.738 228.808 394.193L233.354 398.761C232.778 399.579 232.111 400.314 231.354 400.965C230.611 401.617 229.801 402.17 228.922 402.624C228.058 403.079 227.141 403.42 226.172 403.647C225.217 403.89 224.232 404.011 223.217 404.011C221.505 404.011 219.891 403.693 218.376 403.056C216.876 402.42 215.558 401.534 214.422 400.397C213.3 399.261 212.414 397.912 211.763 396.352C211.111 394.776 210.785 393.049 210.785 391.17C210.785 389.246 211.111 387.488 211.763 385.897C212.414 384.306 213.3 382.95 214.422 381.829C215.558 380.708 216.876 379.836 218.376 379.215C219.891 378.594 221.505 378.283 223.217 378.283C224.232 378.283 225.225 378.405 226.194 378.647C227.164 378.889 228.081 379.238 228.945 379.692C229.823 380.147 230.642 380.708 231.399 381.374C232.157 382.026 232.823 382.761 233.399 383.579L221.763 397.602ZM224.944 384.806C224.657 384.7 224.369 384.632 224.081 384.602C223.808 384.571 223.52 384.556 223.217 384.556C222.369 384.556 221.566 384.715 220.808 385.033C220.066 385.336 219.414 385.776 218.854 386.352C218.308 386.927 217.876 387.624 217.558 388.442C217.24 389.246 217.081 390.155 217.081 391.17C217.081 391.397 217.088 391.655 217.103 391.943C217.134 392.23 217.172 392.526 217.217 392.829C217.278 393.117 217.346 393.397 217.422 393.67C217.497 393.943 217.596 394.185 217.717 394.397L224.944 384.806Z" stroke="#FFBA20" stroke-width="2" mask="url(#path-3-inside-1_2030_2463)"/>
<path d="M242.74 403.556H236.536V379.215H238.036L240.081 381.579C241.081 380.67 242.21 379.973 243.467 379.488C244.74 378.988 246.066 378.738 247.445 378.738C248.93 378.738 250.331 379.026 251.649 379.601C252.968 380.162 254.119 380.942 255.104 381.942C256.089 382.927 256.862 384.086 257.422 385.42C257.998 386.738 258.286 388.147 258.286 389.647V403.556H252.081V389.647C252.081 389.011 251.96 388.412 251.718 387.852C251.475 387.276 251.142 386.776 250.717 386.352C250.293 385.927 249.801 385.594 249.24 385.352C248.68 385.109 248.081 384.988 247.445 384.988C246.793 384.988 246.18 385.109 245.604 385.352C245.028 385.594 244.528 385.927 244.104 386.352C243.68 386.776 243.346 387.276 243.104 387.852C242.861 388.412 242.74 389.011 242.74 389.647V403.556Z" stroke="#FFBA20" stroke-width="2" mask="url(#path-3-inside-1_2030_2463)"/>
<path d="M274.604 403.556C273.104 403.556 271.695 403.276 270.377 402.715C269.059 402.14 267.899 401.359 266.899 400.374C265.915 399.374 265.134 398.215 264.559 396.897C263.998 395.579 263.718 394.17 263.718 392.67V385.442H260.695V379.261H263.718V369.533H269.9V379.261H279.309V385.442H269.9V392.67C269.9 393.321 270.021 393.935 270.263 394.511C270.506 395.071 270.839 395.564 271.263 395.988C271.687 396.412 272.187 396.753 272.763 397.011C273.339 397.253 273.953 397.374 274.604 397.374H279.309V403.556H274.604Z" stroke="#FFBA20" stroke-width="2" mask="url(#path-3-inside-1_2030_2463)"/>
<path d="M306.332 391.17C306.332 392.988 306.006 394.685 305.354 396.261C304.703 397.821 303.817 399.177 302.695 400.329C301.574 401.465 300.256 402.367 298.741 403.034C297.241 403.685 295.627 404.011 293.9 404.011C292.188 404.011 290.574 403.685 289.059 403.034C287.559 402.367 286.241 401.465 285.104 400.329C283.983 399.177 283.097 397.821 282.445 396.261C281.794 394.685 281.468 392.988 281.468 391.17C281.468 389.321 281.794 387.609 282.445 386.033C283.097 384.458 283.983 383.102 285.104 381.965C286.241 380.814 287.559 379.912 289.059 379.261C290.574 378.609 292.188 378.283 293.9 378.283C295.627 378.283 297.241 378.594 298.741 379.215C300.256 379.821 301.574 380.692 302.695 381.829C303.817 382.95 304.703 384.306 305.354 385.897C306.006 387.473 306.332 389.23 306.332 391.17ZM300.082 391.17C300.082 390.17 299.915 389.268 299.582 388.465C299.263 387.647 298.824 386.95 298.263 386.374C297.703 385.783 297.044 385.336 296.286 385.033C295.544 384.715 294.748 384.556 293.9 384.556C293.051 384.556 292.248 384.715 291.491 385.033C290.748 385.336 290.097 385.783 289.536 386.374C288.991 386.95 288.559 387.647 288.241 388.465C287.922 389.268 287.763 390.17 287.763 391.17C287.763 392.109 287.922 392.98 288.241 393.783C288.559 394.587 288.991 395.283 289.536 395.874C290.097 396.465 290.748 396.935 291.491 397.284C292.248 397.617 293.051 397.784 293.9 397.784C294.748 397.784 295.544 397.624 296.286 397.306C297.044 396.988 297.703 396.541 298.263 395.965C298.824 395.39 299.263 394.693 299.582 393.874C299.915 393.056 300.082 392.155 300.082 391.17Z" stroke="#FFBA20" stroke-width="2" mask="url(#path-3-inside-1_2030_2463)"/>
<path d="M315.968 403.556H309.764V379.215H311.264L313.309 382.102C314.309 381.192 315.445 380.495 316.718 380.011C317.991 379.511 319.309 379.261 320.673 379.261H326.15V385.442H320.673C320.021 385.442 319.408 385.564 318.832 385.806C318.256 386.049 317.756 386.382 317.332 386.806C316.908 387.23 316.574 387.73 316.332 388.306C316.089 388.882 315.968 389.496 315.968 390.147V403.556Z" stroke="#FFBA20" stroke-width="2" mask="url(#path-3-inside-1_2030_2463)"/>
<path d="M342.128 403.556H327.946V397.374H342.128C342.552 397.374 342.915 397.223 343.219 396.92C343.522 396.617 343.673 396.253 343.673 395.829C343.673 395.39 343.522 395.102 343.219 394.965C342.915 394.829 342.552 394.761 342.128 394.761H335.673C334.597 394.761 333.59 394.556 332.65 394.147C331.711 393.738 330.893 393.185 330.196 392.488C329.499 391.776 328.946 390.95 328.537 390.011C328.143 389.071 327.946 388.064 327.946 386.988C327.946 385.912 328.143 384.905 328.537 383.965C328.946 383.026 329.499 382.208 330.196 381.511C330.893 380.814 331.711 380.268 332.65 379.874C333.59 379.465 334.597 379.261 335.673 379.261H348.241V385.442H335.673C335.249 385.442 334.885 385.594 334.582 385.897C334.279 386.2 334.128 386.564 334.128 386.988C334.128 387.427 334.279 387.806 334.582 388.124C334.885 388.427 335.249 388.579 335.673 388.579H342.128C343.188 388.579 344.188 388.761 345.128 389.124C346.067 389.473 346.885 389.965 347.582 390.602C348.279 391.238 348.832 392.003 349.241 392.897C349.65 393.791 349.855 394.768 349.855 395.829C349.855 396.905 349.65 397.912 349.241 398.852C348.832 399.776 348.279 400.594 347.582 401.306C346.885 402.003 346.067 402.556 345.128 402.965C344.188 403.359 343.188 403.556 342.128 403.556Z" stroke="#FFBA20" stroke-width="2" mask="url(#path-3-inside-1_2030_2463)"/>
<path d="M191.376 364.71L191.378 364.71L191.398 364.71C191.417 364.71 191.448 364.71 191.491 364.711C191.576 364.713 191.705 364.719 191.871 364.732C192.203 364.759 192.679 364.819 193.241 364.949C194.368 365.208 195.817 365.744 197.145 366.843L197.196 366.885L197.249 366.915C197.249 366.915 197.25 366.915 197.251 366.916C197.256 366.919 197.266 366.926 197.282 366.936C197.312 366.957 197.361 366.991 197.421 367.04C197.541 367.139 197.696 367.288 197.836 367.489C198.039 367.78 198.223 368.197 198.191 368.773C198.084 368.738 197.958 368.697 197.805 368.651C197.101 368.434 196.037 368.161 194.938 368.437L191.376 364.71ZM191.376 364.71L191.376 364.71L191.375 364.71L191.375 364.71L191.359 364.71L191.342 364.71L191.342 364.71L191.341 364.71L191.339 364.71L191.32 364.71C191.3 364.71 191.269 364.71 191.226 364.711C191.141 364.713 191.012 364.719 190.847 364.732C190.515 364.759 190.038 364.819 189.476 364.949C188.349 365.208 186.9 365.744 185.572 366.843L185.521 366.885L185.469 366.915C185.468 366.915 185.468 366.915 185.467 366.916C185.462 366.919 185.451 366.925 185.436 366.936C185.405 366.956 185.357 366.991 185.297 367.04C185.177 367.139 185.022 367.288 184.882 367.489C184.679 367.781 184.495 368.197 184.527 368.773C184.634 368.738 184.76 368.697 184.913 368.651C185.617 368.434 186.681 368.161 187.78 368.437L187.781 368.437C188.652 368.655 189.344 368.952 189.897 369.189C189.949 369.211 190 369.233 190.05 369.254C190.658 369.513 191.019 369.641 191.359 369.641C191.699 369.641 192.06 369.513 192.668 369.254C192.717 369.233 192.768 369.211 192.82 369.189C193.374 368.951 194.066 368.655 194.938 368.437L191.376 364.71ZM198.656 368.906C198.657 368.906 198.657 368.906 198.657 368.906L198.656 368.906Z" fill="#FFBA20" stroke="#FFBA20" stroke-width="1.5"/>
<path d="M192.214 360.773L200.758 365.273L199.542 366.206C199.481 366.076 199.44 365.993 199.425 365.964C199.425 365.964 199.425 365.964 199.425 365.963L199.365 365.844L199.294 365.705L199.174 365.605L199.069 365.518L199.069 365.518C195.743 362.765 191.865 362.688 191.403 362.688H191.315C190.852 362.688 186.975 362.766 183.649 365.518L183.649 365.518L183.544 365.605L183.424 365.705L183.353 365.844L183.293 365.963C183.277 365.994 183.236 366.078 183.176 366.206L181.96 365.273L190.501 360.773C190.703 360.686 191.011 360.626 191.358 360.626C191.705 360.626 192.013 360.686 192.214 360.773Z" fill="#FFBA20" stroke="#FFBA20" stroke-width="1.5"/>
<mask id="path-6-inside-2_2030_2463" fill="white">
<path d="M201.169 365.913C201.07 365.777 200.991 365.618 200.927 365.46L200.648 365.586C200.721 365.76 200.809 365.938 200.922 366.093C201.223 366.508 201.171 366.878 200.922 367.575C200.686 367.941 200.257 368.731 200.278 369.594C200.278 369.594 200.65 369.938 200.918 369.594C200.918 369.594 200.842 368.965 201.071 368.553C201.071 368.553 201.09 369.327 201.348 369.556C201.348 369.556 201.38 368.98 201.358 368.553C201.339 368.188 201.316 367.918 201.217 367.656C201.453 366.994 201.575 366.472 201.169 365.913L201.169 365.913Z"/>
</mask>
<path d="M201.169 365.913C201.07 365.777 200.991 365.618 200.927 365.46L200.648 365.586C200.721 365.76 200.809 365.938 200.922 366.093C201.223 366.508 201.171 366.878 200.922 367.575C200.686 367.941 200.257 368.731 200.278 369.594C200.278 369.594 200.65 369.938 200.918 369.594C200.918 369.594 200.842 368.965 201.071 368.553C201.071 368.553 201.09 369.327 201.348 369.556C201.348 369.556 201.38 368.98 201.358 368.553C201.339 368.188 201.316 367.918 201.217 367.656C201.453 366.994 201.575 366.472 201.169 365.913L201.169 365.913Z" fill="#FFBA20"/>
<path d="M201.169 365.913L199.955 366.795L202.141 369.805L202.655 366.121L201.169 365.913ZM200.927 365.46L202.316 364.894L201.729 363.451L200.309 364.093L200.927 365.46ZM200.648 365.586L200.03 364.219L198.707 364.818L199.262 366.16L200.648 365.586ZM200.922 366.093L202.136 365.212L202.135 365.211L200.922 366.093ZM200.922 367.575L202.183 368.386L202.276 368.242L202.334 368.08L200.922 367.575ZM200.278 369.594L198.778 369.631L198.794 370.266L199.26 370.696L200.278 369.594ZM200.918 369.594L202.102 370.515L202.481 370.027L202.407 369.414L200.918 369.594ZM201.071 368.553L202.57 368.516L202.434 363.019L199.76 367.824L201.071 368.553ZM201.348 369.556L200.352 370.677L202.676 372.742L202.846 369.638L201.348 369.556ZM201.358 368.553L202.856 368.477L202.856 368.476L201.358 368.553ZM201.217 367.656L199.805 367.151L199.62 367.669L199.813 368.184L201.217 367.656ZM201.169 365.913L202.383 365.032L200.197 362.025L199.684 365.706L201.169 365.913ZM202.383 365.032C202.385 365.035 202.378 365.026 202.364 365C202.351 364.974 202.335 364.939 202.316 364.894L199.538 366.026C199.626 366.243 199.759 366.524 199.955 366.795L202.383 365.032ZM200.309 364.093L200.03 364.219L201.266 366.953L201.545 366.826L200.309 364.093ZM199.262 366.16C199.359 366.394 199.501 366.689 199.709 366.976L202.135 365.211C202.118 365.187 202.082 365.127 202.034 365.012L199.262 366.16ZM199.709 366.975C199.709 366.976 199.702 366.966 199.691 366.946C199.68 366.925 199.668 366.897 199.657 366.863C199.632 366.787 199.628 366.722 199.629 366.685C199.63 366.658 199.633 366.668 199.615 366.739C199.597 366.812 199.565 366.915 199.509 367.07L202.334 368.08C202.461 367.724 202.614 367.261 202.628 366.771C202.644 366.182 202.465 365.665 202.136 365.212L199.709 366.975ZM199.66 366.764C199.381 367.197 198.746 368.305 198.778 369.631L201.777 369.558C201.773 369.379 201.816 369.165 201.905 368.934C201.992 368.706 202.103 368.511 202.183 368.386L199.66 366.764ZM200.278 369.594C199.26 370.696 199.261 370.697 199.261 370.697C199.261 370.697 199.262 370.698 199.262 370.698C199.263 370.699 199.263 370.699 199.264 370.7C199.265 370.701 199.266 370.702 199.268 370.703C199.271 370.706 199.273 370.709 199.276 370.711C199.282 370.717 199.289 370.722 199.296 370.729C199.311 370.741 199.327 370.755 199.346 370.771C199.384 370.801 199.432 370.839 199.49 370.879C199.6 370.954 199.78 371.064 200.015 371.144C200.25 371.224 200.612 371.297 201.031 371.204C201.479 371.104 201.844 370.847 202.102 370.515L199.733 368.674C199.858 368.513 200.077 368.343 200.379 368.275C200.653 368.214 200.871 368.266 200.98 368.303C201.089 368.34 201.159 368.385 201.19 368.406C201.209 368.42 201.226 368.433 201.242 368.446C201.25 368.453 201.259 368.46 201.267 368.467C201.272 368.471 201.276 368.475 201.281 368.479C201.283 368.481 201.286 368.483 201.288 368.485C201.289 368.487 201.29 368.488 201.291 368.489C201.292 368.489 201.293 368.49 201.293 368.49C201.294 368.491 201.294 368.491 201.294 368.491C201.295 368.492 201.295 368.492 200.278 369.594ZM200.918 369.594C202.407 369.414 202.407 369.414 202.407 369.414C202.407 369.414 202.407 369.415 202.407 369.415C202.407 369.415 202.407 369.416 202.407 369.416C202.407 369.417 202.407 369.418 202.407 369.418C202.408 369.42 202.408 369.421 202.408 369.422C202.408 369.425 202.408 369.426 202.409 369.428C202.409 369.43 202.409 369.431 202.409 369.43C202.409 369.429 202.408 369.421 202.407 369.408C202.406 369.381 202.405 369.341 202.407 369.297C202.413 369.167 202.436 369.185 202.382 369.283L199.76 367.824C199.476 368.333 199.423 368.872 199.41 369.159C199.402 369.325 199.406 369.468 199.412 369.571C199.415 369.624 199.418 369.668 199.421 369.702C199.423 369.719 199.424 369.734 199.426 369.746C199.426 369.752 199.427 369.758 199.427 369.763C199.428 369.765 199.428 369.767 199.428 369.769C199.428 369.77 199.428 369.771 199.428 369.772C199.428 369.773 199.429 369.773 199.429 369.774C199.429 369.774 199.429 369.774 199.429 369.774C199.429 369.775 199.429 369.775 200.918 369.594ZM201.071 368.553C199.571 368.59 199.571 368.591 199.571 368.591C199.571 368.591 199.571 368.591 199.571 368.591C199.571 368.592 199.571 368.592 199.571 368.592C199.571 368.593 199.571 368.594 199.571 368.595C199.571 368.596 199.572 368.598 199.572 368.6C199.572 368.605 199.572 368.609 199.572 368.615C199.572 368.627 199.573 368.641 199.574 368.658C199.576 368.692 199.578 368.738 199.582 368.792C199.59 368.898 199.605 369.048 199.633 369.215C199.66 369.376 199.705 369.592 199.786 369.815C199.856 370.007 200.012 370.375 200.352 370.677L202.344 368.435C202.461 368.538 202.526 368.637 202.557 368.689C202.588 368.744 202.602 368.781 202.606 368.79C202.61 368.803 202.603 368.783 202.592 368.722C202.583 368.667 202.577 368.609 202.574 368.563C202.572 368.541 202.571 368.524 202.57 368.515C202.57 368.511 202.57 368.509 202.57 368.509C202.57 368.509 202.57 368.509 202.57 368.51C202.57 368.511 202.57 368.512 202.57 368.513C202.57 368.513 202.57 368.514 202.57 368.514C202.57 368.514 202.57 368.515 202.57 368.515C202.57 368.515 202.57 368.515 202.57 368.515C202.57 368.516 202.57 368.516 201.071 368.553ZM201.348 369.556C202.846 369.638 202.846 369.638 202.846 369.638C202.846 369.638 202.846 369.638 202.846 369.638C202.846 369.638 202.846 369.638 202.846 369.638C202.846 369.637 202.846 369.637 202.846 369.637C202.846 369.636 202.846 369.635 202.846 369.635C202.846 369.633 202.846 369.631 202.846 369.628C202.847 369.622 202.847 369.614 202.848 369.605C202.849 369.585 202.85 369.558 202.851 369.524C202.854 369.457 202.858 369.363 202.861 369.254C202.866 369.045 202.87 368.748 202.856 368.477L199.86 368.629C199.868 368.785 199.867 368.99 199.862 369.175C199.859 369.264 199.856 369.341 199.854 369.395C199.853 369.422 199.852 369.443 199.851 369.456C199.851 369.463 199.851 369.468 199.851 369.471C199.85 369.473 199.85 369.474 199.85 369.474C199.85 369.474 199.85 369.474 199.85 369.474C199.85 369.474 199.85 369.474 199.85 369.474C199.85 369.474 199.85 369.474 199.85 369.474C199.85 369.474 199.85 369.474 199.85 369.474C199.85 369.474 199.85 369.474 201.348 369.556ZM202.856 368.476C202.838 368.118 202.811 367.633 202.621 367.128L199.813 368.184C199.815 368.188 199.823 368.209 199.832 368.274C199.843 368.35 199.851 368.452 199.86 368.63L202.856 368.476ZM202.63 368.16C202.751 367.822 202.916 367.332 202.933 366.795C202.953 366.183 202.784 365.585 202.383 365.032L199.956 366.795C199.969 366.813 199.957 366.802 199.946 366.765C199.941 366.749 199.938 366.733 199.936 366.719C199.935 366.705 199.935 366.697 199.935 366.697C199.935 366.7 199.933 366.733 199.913 366.814C199.892 366.897 199.858 367.002 199.805 367.151L202.63 368.16ZM199.684 365.706L199.684 365.706L202.655 366.121L202.655 366.121L199.684 365.706Z" fill="#FFBA20" mask="url(#path-6-inside-2_2030_2463)"/>
<mask id="path-8-inside-3_2030_2463" fill="white">
<path d="M57.7133 403.033H51.2132V379.76C51.2132 379.305 51.1223 378.881 50.9405 378.487C50.7738 378.093 50.539 377.752 50.236 377.464C49.9481 377.161 49.6072 376.927 49.2132 376.76C48.8193 376.593 48.395 376.51 47.9405 376.51C47.4859 376.51 47.0617 376.593 46.6677 376.76C46.2738 376.927 45.9253 377.161 45.6223 377.464C45.3344 377.752 45.1071 378.093 44.9404 378.487C44.7738 378.881 44.6904 379.305 44.6904 379.76V403.033H38.1676V379.76C38.1676 379.305 38.0843 378.881 37.9176 378.487C37.751 378.093 37.5161 377.752 37.2131 377.464C36.9252 377.161 36.5843 376.927 36.1904 376.76C35.7964 376.593 35.3722 376.51 34.9176 376.51C34.4631 376.51 34.0388 376.593 33.6449 376.76C33.2509 376.927 32.9024 377.161 32.5994 377.464C32.3115 377.752 32.0842 378.093 31.9176 378.487C31.7509 378.881 31.6676 379.305 31.6676 379.76V403.033H25.1448V379.76C25.1448 378.411 25.3948 377.146 25.8948 375.964C26.4099 374.767 27.1069 373.73 27.9857 372.851C28.8797 371.957 29.9176 371.26 31.0994 370.76C32.2964 370.245 33.5691 369.987 34.9176 369.987C36.1297 369.987 37.2964 370.207 38.4176 370.646C39.5389 371.07 40.5465 371.692 41.4404 372.51C42.3344 371.692 43.3344 371.07 44.4404 370.646C45.5617 370.207 46.7283 369.987 47.9405 369.987C49.289 369.987 50.5541 370.245 51.736 370.76C52.933 371.26 53.9708 371.957 54.8496 372.851C55.7436 373.73 56.4406 374.767 56.9406 375.964C57.4557 377.146 57.7133 378.411 57.7133 379.76V403.033Z"/>
<path d="M86.1909 403.033H84.6909L82.2818 399.692C81.6908 400.222 81.0621 400.722 80.3954 401.192C79.7439 401.646 79.0545 402.048 78.3272 402.396C77.5999 402.73 76.8499 402.995 76.0771 403.192C75.3196 403.389 74.5468 403.487 73.7589 403.487C72.0468 403.487 70.4331 403.2 68.918 402.624C67.418 402.048 66.0998 401.215 64.9634 400.124C63.8422 399.018 62.9558 397.669 62.3043 396.078C61.6528 394.487 61.327 392.677 61.327 390.646C61.327 388.752 61.6528 387.018 62.3043 385.442C62.9558 383.851 63.8422 382.487 64.9634 381.351C66.0998 380.214 67.418 379.336 68.918 378.714C70.4331 378.078 72.0468 377.76 73.7589 377.76C74.5468 377.76 75.3271 377.858 76.0999 378.055C76.8726 378.252 77.6226 378.525 78.3499 378.874C79.0772 379.222 79.7666 379.631 80.4181 380.101C81.0848 380.571 81.706 381.078 82.2818 381.624L84.6909 378.737H86.1909V403.033ZM79.9408 390.646C79.9408 389.798 79.7742 388.98 79.4408 388.192C79.1226 387.389 78.6832 386.684 78.1226 386.078C77.562 385.457 76.9029 384.964 76.1453 384.601C75.4029 384.222 74.6074 384.033 73.7589 384.033C72.9104 384.033 72.1074 384.177 71.3498 384.464C70.6074 384.752 69.9559 385.177 69.3953 385.737C68.8498 386.298 68.418 386.995 68.0998 387.828C67.7816 388.646 67.6225 389.586 67.6225 390.646C67.6225 391.707 67.7816 392.654 68.0998 393.487C68.418 394.306 68.8498 394.995 69.3953 395.556C69.9559 396.116 70.6074 396.54 71.3498 396.828C72.1074 397.116 72.9104 397.26 73.7589 397.26C74.6074 397.26 75.4029 397.078 76.1453 396.715C76.9029 396.336 77.562 395.843 78.1226 395.237C78.6832 394.616 79.1226 393.912 79.4408 393.124C79.7742 392.321 79.9408 391.495 79.9408 390.646Z"/>
<path d="M97.1456 403.033H90.9409V378.692H92.441L94.4864 381.055C95.4865 380.146 96.6153 379.449 97.8728 378.964C99.1456 378.464 100.471 378.214 101.85 378.214C103.335 378.214 104.737 378.502 106.055 379.078C107.373 379.639 108.524 380.419 109.509 381.419C110.494 382.404 111.267 383.563 111.828 384.896C112.403 386.215 112.691 387.624 112.691 389.124V403.033H106.487V389.124C106.487 388.487 106.365 387.889 106.123 387.328C105.881 386.752 105.547 386.252 105.123 385.828C104.699 385.404 104.206 385.071 103.646 384.828C103.085 384.586 102.487 384.464 101.85 384.464C101.199 384.464 100.585 384.586 100.009 384.828C99.4335 385.071 98.9335 385.404 98.5092 385.828C98.085 386.252 97.7516 386.752 97.5092 387.328C97.2668 387.889 97.1456 388.487 97.1456 389.124V403.033Z"/>
<path d="M134.441 390.646C134.441 389.798 134.275 388.98 133.941 388.192C133.623 387.389 133.184 386.684 132.623 386.078C132.063 385.457 131.404 384.964 130.646 384.601C129.903 384.222 129.108 384.033 128.26 384.033C127.411 384.033 126.608 384.177 125.85 384.464C125.108 384.752 124.456 385.177 123.896 385.737C123.35 386.298 122.919 386.995 122.6 387.828C122.282 388.646 122.123 389.586 122.123 390.646C122.123 391.662 122.282 392.578 122.6 393.396C122.919 394.199 123.35 394.889 123.896 395.465C124.456 396.04 125.108 396.487 125.85 396.806C126.608 397.109 127.411 397.26 128.26 397.26C129.108 397.26 129.903 397.078 130.646 396.715C131.404 396.336 132.063 395.843 132.623 395.237C133.184 394.616 133.623 393.912 133.941 393.124C134.275 392.321 134.441 391.495 134.441 390.646ZM140.691 399.965C140.691 401.677 140.366 403.283 139.714 404.783C139.063 406.283 138.169 407.594 137.032 408.715C135.911 409.836 134.593 410.722 133.078 411.374C131.578 412.025 129.972 412.351 128.26 412.351L125.146 412.306V406.101L128.214 406.147C129.184 406.147 130.01 406.018 130.691 405.76C131.373 405.518 131.949 405.177 132.419 404.737C132.888 404.313 133.26 403.821 133.532 403.26C133.82 402.7 134.047 402.109 134.214 401.487C133.972 401.881 133.623 402.207 133.169 402.465C132.714 402.707 132.207 402.904 131.646 403.056C131.1 403.222 130.525 403.336 129.919 403.397C129.328 403.457 128.775 403.487 128.26 403.487C126.547 403.487 124.934 403.192 123.419 402.601C121.919 402.01 120.6 401.169 119.464 400.078C118.343 398.972 117.456 397.624 116.805 396.033C116.153 394.442 115.828 392.646 115.828 390.646C115.828 388.813 116.153 387.108 116.805 385.533C117.456 383.957 118.343 382.593 119.464 381.442C120.6 380.29 121.919 379.389 123.419 378.737C124.934 378.086 126.547 377.76 128.26 377.76C129.047 377.76 129.828 377.858 130.6 378.055C131.373 378.252 132.123 378.525 132.85 378.874C133.578 379.222 134.267 379.631 134.919 380.101C135.585 380.571 136.207 381.078 136.782 381.624L139.191 378.737H140.691V399.965Z"/>
<path d="M168.965 390.646C168.965 392.465 168.639 394.162 167.987 395.737C167.336 397.298 166.449 398.654 165.328 399.806C164.207 400.942 162.889 401.843 161.374 402.51C159.874 403.162 158.26 403.487 156.533 403.487C154.82 403.487 153.207 403.162 151.692 402.51C150.192 401.843 148.873 400.942 147.737 399.806C146.616 398.654 145.729 397.298 145.078 395.737C144.426 394.162 144.101 392.465 144.101 390.646C144.101 388.798 144.426 387.086 145.078 385.51C145.729 383.934 146.616 382.578 147.737 381.442C148.873 380.29 150.192 379.389 151.692 378.737C153.207 378.086 154.82 377.76 156.533 377.76C158.26 377.76 159.874 378.07 161.374 378.692C162.889 379.298 164.207 380.169 165.328 381.305C166.449 382.427 167.336 383.783 167.987 385.374C168.639 386.949 168.965 388.707 168.965 390.646ZM162.714 390.646C162.714 389.646 162.548 388.745 162.214 387.942C161.896 387.124 161.457 386.427 160.896 385.851C160.336 385.26 159.677 384.813 158.919 384.51C158.177 384.192 157.381 384.033 156.533 384.033C155.684 384.033 154.881 384.192 154.123 384.51C153.381 384.813 152.729 385.26 152.169 385.851C151.623 386.427 151.192 387.124 150.873 387.942C150.555 388.745 150.396 389.646 150.396 390.646C150.396 391.586 150.555 392.457 150.873 393.26C151.192 394.063 151.623 394.76 152.169 395.351C152.729 395.942 153.381 396.412 154.123 396.76C154.881 397.093 155.684 397.26 156.533 397.26C157.381 397.26 158.177 397.101 158.919 396.783C159.677 396.465 160.336 396.018 160.896 395.442C161.457 394.866 161.896 394.169 162.214 393.351C162.548 392.533 162.714 391.631 162.714 390.646Z"/>
</mask>
<path d="M57.7133 403.033H51.2132V379.76C51.2132 379.305 51.1223 378.881 50.9405 378.487C50.7738 378.093 50.539 377.752 50.236 377.464C49.9481 377.161 49.6072 376.927 49.2132 376.76C48.8193 376.593 48.395 376.51 47.9405 376.51C47.4859 376.51 47.0617 376.593 46.6677 376.76C46.2738 376.927 45.9253 377.161 45.6223 377.464C45.3344 377.752 45.1071 378.093 44.9404 378.487C44.7738 378.881 44.6904 379.305 44.6904 379.76V403.033H38.1676V379.76C38.1676 379.305 38.0843 378.881 37.9176 378.487C37.751 378.093 37.5161 377.752 37.2131 377.464C36.9252 377.161 36.5843 376.927 36.1904 376.76C35.7964 376.593 35.3722 376.51 34.9176 376.51C34.4631 376.51 34.0388 376.593 33.6449 376.76C33.2509 376.927 32.9024 377.161 32.5994 377.464C32.3115 377.752 32.0842 378.093 31.9176 378.487C31.7509 378.881 31.6676 379.305 31.6676 379.76V403.033H25.1448V379.76C25.1448 378.411 25.3948 377.146 25.8948 375.964C26.4099 374.767 27.1069 373.73 27.9857 372.851C28.8797 371.957 29.9176 371.26 31.0994 370.76C32.2964 370.245 33.5691 369.987 34.9176 369.987C36.1297 369.987 37.2964 370.207 38.4176 370.646C39.5389 371.07 40.5465 371.692 41.4404 372.51C42.3344 371.692 43.3344 371.07 44.4404 370.646C45.5617 370.207 46.7283 369.987 47.9405 369.987C49.289 369.987 50.5541 370.245 51.736 370.76C52.933 371.26 53.9708 371.957 54.8496 372.851C55.7436 373.73 56.4406 374.767 56.9406 375.964C57.4557 377.146 57.7133 378.411 57.7133 379.76V403.033Z" stroke="#FFBA20" stroke-width="2" mask="url(#path-8-inside-3_2030_2463)"/>
<path d="M86.1909 403.033H84.6909L82.2818 399.692C81.6908 400.222 81.0621 400.722 80.3954 401.192C79.7439 401.646 79.0545 402.048 78.3272 402.396C77.5999 402.73 76.8499 402.995 76.0771 403.192C75.3196 403.389 74.5468 403.487 73.7589 403.487C72.0468 403.487 70.4331 403.2 68.918 402.624C67.418 402.048 66.0998 401.215 64.9634 400.124C63.8422 399.018 62.9558 397.669 62.3043 396.078C61.6528 394.487 61.327 392.677 61.327 390.646C61.327 388.752 61.6528 387.018 62.3043 385.442C62.9558 383.851 63.8422 382.487 64.9634 381.351C66.0998 380.214 67.418 379.336 68.918 378.714C70.4331 378.078 72.0468 377.76 73.7589 377.76C74.5468 377.76 75.3271 377.858 76.0999 378.055C76.8726 378.252 77.6226 378.525 78.3499 378.874C79.0772 379.222 79.7666 379.631 80.4181 380.101C81.0848 380.571 81.706 381.078 82.2818 381.624L84.6909 378.737H86.1909V403.033ZM79.9408 390.646C79.9408 389.798 79.7742 388.98 79.4408 388.192C79.1226 387.389 78.6832 386.684 78.1226 386.078C77.562 385.457 76.9029 384.964 76.1453 384.601C75.4029 384.222 74.6074 384.033 73.7589 384.033C72.9104 384.033 72.1074 384.177 71.3498 384.464C70.6074 384.752 69.9559 385.177 69.3953 385.737C68.8498 386.298 68.418 386.995 68.0998 387.828C67.7816 388.646 67.6225 389.586 67.6225 390.646C67.6225 391.707 67.7816 392.654 68.0998 393.487C68.418 394.306 68.8498 394.995 69.3953 395.556C69.9559 396.116 70.6074 396.54 71.3498 396.828C72.1074 397.116 72.9104 397.26 73.7589 397.26C74.6074 397.26 75.4029 397.078 76.1453 396.715C76.9029 396.336 77.562 395.843 78.1226 395.237C78.6832 394.616 79.1226 393.912 79.4408 393.124C79.7742 392.321 79.9408 391.495 79.9408 390.646Z" stroke="#FFBA20" stroke-width="2" mask="url(#path-8-inside-3_2030_2463)"/>
<path d="M97.1456 403.033H90.9409V378.692H92.441L94.4864 381.055C95.4865 380.146 96.6153 379.449 97.8728 378.964C99.1456 378.464 100.471 378.214 101.85 378.214C103.335 378.214 104.737 378.502 106.055 379.078C107.373 379.639 108.524 380.419 109.509 381.419C110.494 382.404 111.267 383.563 111.828 384.896C112.403 386.215 112.691 387.624 112.691 389.124V403.033H106.487V389.124C106.487 388.487 106.365 387.889 106.123 387.328C105.881 386.752 105.547 386.252 105.123 385.828C104.699 385.404 104.206 385.071 103.646 384.828C103.085 384.586 102.487 384.464 101.85 384.464C101.199 384.464 100.585 384.586 100.009 384.828C99.4335 385.071 98.9335 385.404 98.5092 385.828C98.085 386.252 97.7516 386.752 97.5092 387.328C97.2668 387.889 97.1456 388.487 97.1456 389.124V403.033Z" stroke="#FFBA20" stroke-width="2" mask="url(#path-8-inside-3_2030_2463)"/>
<path d="M134.441 390.646C134.441 389.798 134.275 388.98 133.941 388.192C133.623 387.389 133.184 386.684 132.623 386.078C132.063 385.457 131.404 384.964 130.646 384.601C129.903 384.222 129.108 384.033 128.26 384.033C127.411 384.033 126.608 384.177 125.85 384.464C125.108 384.752 124.456 385.177 123.896 385.737C123.35 386.298 122.919 386.995 122.6 387.828C122.282 388.646 122.123 389.586 122.123 390.646C122.123 391.662 122.282 392.578 122.6 393.396C122.919 394.199 123.35 394.889 123.896 395.465C124.456 396.04 125.108 396.487 125.85 396.806C126.608 397.109 127.411 397.26 128.26 397.26C129.108 397.26 129.903 397.078 130.646 396.715C131.404 396.336 132.063 395.843 132.623 395.237C133.184 394.616 133.623 393.912 133.941 393.124C134.275 392.321 134.441 391.495 134.441 390.646ZM140.691 399.965C140.691 401.677 140.366 403.283 139.714 404.783C139.063 406.283 138.169 407.594 137.032 408.715C135.911 409.836 134.593 410.722 133.078 411.374C131.578 412.025 129.972 412.351 128.26 412.351L125.146 412.306V406.101L128.214 406.147C129.184 406.147 130.01 406.018 130.691 405.76C131.373 405.518 131.949 405.177 132.419 404.737C132.888 404.313 133.26 403.821 133.532 403.26C133.82 402.7 134.047 402.109 134.214 401.487C133.972 401.881 133.623 402.207 133.169 402.465C132.714 402.707 132.207 402.904 131.646 403.056C131.1 403.222 130.525 403.336 129.919 403.397C129.328 403.457 128.775 403.487 128.26 403.487C126.547 403.487 124.934 403.192 123.419 402.601C121.919 402.01 120.6 401.169 119.464 400.078C118.343 398.972 117.456 397.624 116.805 396.033C116.153 394.442 115.828 392.646 115.828 390.646C115.828 388.813 116.153 387.108 116.805 385.533C117.456 383.957 118.343 382.593 119.464 381.442C120.6 380.29 121.919 379.389 123.419 378.737C124.934 378.086 126.547 377.76 128.26 377.76C129.047 377.76 129.828 377.858 130.6 378.055C131.373 378.252 132.123 378.525 132.85 378.874C133.578 379.222 134.267 379.631 134.919 380.101C135.585 380.571 136.207 381.078 136.782 381.624L139.191 378.737H140.691V399.965Z" stroke="#FFBA20" stroke-width="2" mask="url(#path-8-inside-3_2030_2463)"/>
<path d="M168.965 390.646C168.965 392.465 168.639 394.162 167.987 395.737C167.336 397.298 166.449 398.654 165.328 399.806C164.207 400.942 162.889 401.843 161.374 402.51C159.874 403.162 158.26 403.487 156.533 403.487C154.82 403.487 153.207 403.162 151.692 402.51C150.192 401.843 148.873 400.942 147.737 399.806C146.616 398.654 145.729 397.298 145.078 395.737C144.426 394.162 144.101 392.465 144.101 390.646C144.101 388.798 144.426 387.086 145.078 385.51C145.729 383.934 146.616 382.578 147.737 381.442C148.873 380.29 150.192 379.389 151.692 378.737C153.207 378.086 154.82 377.76 156.533 377.76C158.26 377.76 159.874 378.07 161.374 378.692C162.889 379.298 164.207 380.169 165.328 381.305C166.449 382.427 167.336 383.783 167.987 385.374C168.639 386.949 168.965 388.707 168.965 390.646ZM162.714 390.646C162.714 389.646 162.548 388.745 162.214 387.942C161.896 387.124 161.457 386.427 160.896 385.851C160.336 385.26 159.677 384.813 158.919 384.51C158.177 384.192 157.381 384.033 156.533 384.033C155.684 384.033 154.881 384.192 154.123 384.51C153.381 384.813 152.729 385.26 152.169 385.851C151.623 386.427 151.192 387.124 150.873 387.942C150.555 388.745 150.396 389.646 150.396 390.646C150.396 391.586 150.555 392.457 150.873 393.26C151.192 394.063 151.623 394.76 152.169 395.351C152.729 395.942 153.381 396.412 154.123 396.76C154.881 397.093 155.684 397.26 156.533 397.26C157.381 397.26 158.177 397.101 158.919 396.783C159.677 396.465 160.336 396.018 160.896 395.442C161.457 394.866 161.896 394.169 162.214 393.351C162.548 392.533 162.714 391.631 162.714 390.646Z" stroke="#FFBA20" stroke-width="2" mask="url(#path-8-inside-3_2030_2463)"/>
<path d="M39.6385 366.517L39.6391 366.507C39.6898 365.646 39.8885 364.83 40.2083 364.079C39.3008 362.785 37.7849 361.948 36.096 361.937L39.6385 366.517ZM39.6385 366.517L39.6382 366.527M39.6385 366.517L39.6382 366.527M39.6382 366.527L39.5738 368.535L39.3349 368.55C36.5722 368.661 34.2238 366.537 34.0969 363.838L34.0964 363.825L34.0235 362.015L35.8177 361.943M39.6382 366.527L35.8177 361.943M35.8177 361.943H35.8211L35.8377 361.943C35.9249 361.939 36.0111 361.937 36.0955 361.937L35.8177 361.943ZM33.671 361.278L35.8028 361.193L33.671 361.278ZM33.671 361.278C33.4354 361.287 33.2517 361.486 33.2611 361.722L33.671 361.278ZM40.2167 364.059L40.2166 364.059L40.2167 364.059Z" fill="#FFBA20" stroke="#FFBA20" stroke-width="1.5"/>
<path d="M47.091 361.785L47.0938 361.785L48.9019 361.68L49.0077 363.487C49.0077 363.488 49.0078 363.488 49.0078 363.488C49.1582 366.234 47.0144 368.554 44.2454 368.707L44.2431 368.707L42.4343 368.812L42.3291 367.007C42.2245 364.28 44.3694 361.934 47.091 361.785ZM42.1115 368.831C42.1116 368.831 42.1116 368.831 42.1117 368.831L42.1115 368.831Z" fill="#FFBA20" stroke="#FFBA20" stroke-width="1.5"/>
<g clip-path="url(#clip0_2030_2463)">
<path d="M115.311 259.96C115.311 259.96 95.9191 278.785 115.126 311.788C119.862 319.934 123.583 326.725 123.583 326.725C123.583 326.725 125.798 312.98 121.499 304.109C117.199 295.227 116.435 289.097 115.147 282.403C113.489 273.727 115.311 259.96 115.311 259.96Z" fill="#55A793"/>
<path d="M125.329 317.627C125.329 317.627 86.0541 307.987 76.7018 256.018C73.9955 240.973 71.4419 223.913 71.4419 223.913C71.4419 223.913 86.2068 242.218 93.7148 259.949C111.939 303.037 125.34 317.627 125.34 317.627H125.329Z" fill="#8FD3C3"/>
<path d="M12 271.117C12 271.117 53.2175 251.956 92.4052 289.313C103.896 300.264 113.63 318.071 113.63 318.071C113.63 318.071 58.7175 293.884 46.8335 285.977C35.3533 278.33 12 271.127 12 271.127L12 271.117Z" fill="#8FD3C3"/>
<path d="M115.649 317.681C110.051 314.583 86.5888 311.669 67.3278 313.348C51.1005 314.756 27.2234 315.027 27.2234 315.027C27.2234 315.027 38.409 309.655 53.4358 303.438C64.4141 298.899 74.3556 295.975 88.2803 302.376C99.5968 307.575 115.639 317.67 115.639 317.67L115.649 317.681Z" fill="#378068"/>
<path d="M64.8069 274.388C38.649 250.147 27.2234 227.888 27.2234 227.888C27.2234 227.888 62.8099 242.955 83.304 267.975C99.444 287.689 112.07 309.514 115.846 311.301C115.846 311.301 79.3754 287.873 64.8069 274.377V274.388Z" fill="#55A793"/>
<path d="M282.309 286.172C311.599 274.442 338.99 281.406 338.99 281.406C338.99 281.406 299.595 296.17 279.155 303.188C257.908 310.489 235.842 310.564 232.896 312.893C232.896 312.893 265.994 292.703 282.298 286.172H282.309Z" fill="#8FD3C3"/>
<path d="M207.524 320.995C207.524 320.995 238.494 304.564 239.836 251.782C240.229 236.499 231.586 220.545 231.586 220.545C231.586 220.545 226.763 238.763 226.261 254.826C224.799 301.531 207.524 320.995 207.524 320.995Z" fill="#378068"/>
<path d="M242.816 276.868C261.335 246.475 258.672 213.006 258.672 213.006C258.672 213.006 234.893 254.165 223.26 275.698C211.169 298.098 206.978 323.432 203.835 326.183C203.835 326.183 232.503 293.787 242.816 276.857V276.868Z" fill="#55A793"/>
<path d="M292.643 248.858C292.643 248.858 245.555 245.771 221.59 294.187C214.562 308.377 205.036 327.039 205.036 327.039C205.036 327.039 246.93 303.34 260.462 282.782C268.024 271.301 292.632 248.869 292.632 248.869L292.643 248.858Z" fill="#8FD3C3"/>
<path d="M210.176 323.909C214.89 319.609 239.924 307.402 256.173 308.582C272.411 309.763 294.815 311.301 294.815 311.301C294.815 311.301 283.444 298.336 267.369 295.758C255.627 293.873 245.282 293.31 233.223 302.744C223.435 310.402 210.186 323.92 210.186 323.92L210.176 323.909Z" fill="#378068"/>
<path d="M219.659 318.58L115.18 327.007C110.051 327.418 105.359 323.476 104.726 318.19L79.0261 100.371C78.3932 95.1065 82.1035 90.9039 87.2871 90.9906L192.792 92.6911C197.517 92.7669 201.827 96.8829 202.428 101.887L227.025 308.799C227.625 313.814 224.34 318.19 219.659 318.569V318.58Z" fill="#1062CE"/>
<path d="M231.314 307.878L224.984 315.861L220.27 316.197L223.686 306.373L231.314 307.878Z" fill="#BDC2E6"/>
<path d="M88.8913 86.2898L81.2087 93.4277L83.4568 113.314L92.3616 95.9839L88.8913 86.2898Z" fill="#0269F1"/>
<path d="M224.7 312.644L120.713 320.779C115.606 321.179 110.935 317.237 110.302 311.962L84.6788 94.7382C84.0459 89.485 87.7344 85.3041 92.8961 85.4016L197.899 87.3404C202.602 87.427 206.891 91.543 207.502 96.5362L232.056 302.928C232.656 307.933 229.382 312.287 224.722 312.655L224.7 312.644Z" fill="#0269F1"/>
<path d="M109.505 305.116L110.313 311.972C110.946 317.237 115.617 321.19 120.724 320.789L224.711 312.655C228.673 312.341 231.63 309.145 232.056 305.116H109.505Z" fill="#0269F1"/>
<path d="M164.866 100.392L130.534 99.959C129.749 99.959 129.028 99.2766 128.93 98.4642C128.832 97.6519 129.389 97.002 130.185 97.0128L164.517 97.4894C165.281 97.4894 165.979 98.161 166.077 98.9625C166.175 99.764 165.63 100.403 164.866 100.392Z" fill="white"/>
<path d="M227.625 297.718L113.063 298.108L90.5173 106.793L205.298 107.909L227.625 297.718Z" fill="white"/>
<g clip-path="url(#clip1_2030_2463)">
<path d="M206.2 302.734C204.269 272.659 197.081 209.244 197.081 209.244L133.895 215.438C133.895 215.438 133.84 284.316 135.793 318.269C137.746 352.221 139.744 384.23 139.744 384.23C139.744 384.23 148.095 388.851 159.793 381.083C159.793 381.083 160.177 311.474 162.119 298.856C163.194 291.875 164.884 267.35 166.179 246.845C172.983 265.067 193.438 385.267 193.438 385.267C193.438 385.267 201.559 386.742 210.733 379.467C210.733 379.467 207.748 326.942 206.189 302.734H206.2Z" fill="#0A4088"/>
<path d="M181.279 220.332C186.975 218.726 192.418 219.665 198.036 217.754C197.301 214.094 197.092 209.233 197.092 209.233L133.906 215.427C133.906 215.427 133.895 218.496 133.928 226.657C150.004 226.34 166.366 224.559 181.29 220.332H181.279Z" fill="#213554"/>
<path opacity="0.42" d="M184.275 216.858C184.275 216.858 186.097 224.713 196.423 225.925" stroke="white" stroke-width="0.71" stroke-miterlimit="10"/>
<path opacity="0.42" d="M136.913 227.739C136.913 227.739 143.596 226.526 147.842 217.459" stroke="white" stroke-width="0.71" stroke-miterlimit="10"/>
<path d="M179.458 93.7952C179.458 93.7952 183.134 92.4406 183.562 95.9583C183.913 98.886 182.541 99.6944 180.72 102.458C179.479 104.337 177.559 103.573 177.559 103.573L179.458 93.7952Z" fill="#FCB58A"/>
<path d="M179.381 95.0624C180.763 94.538 181.927 94.7128 181.751 96.6574C181.63 98.0775 180.412 98.8204 180.006 100.568C179.6 102.316 177.987 102.447 177.987 102.447L179.381 95.0515V95.0624Z" fill="#EE8D55"/>
<path d="M148.929 93.7952C148.929 93.7952 145.252 92.4406 144.824 95.9583C144.473 98.886 145.845 99.6944 147.667 102.458C148.907 104.337 150.827 103.573 150.827 103.573L148.929 93.7952Z" fill="#FCB58A"/>
<path d="M148.994 95.0624C147.612 94.538 146.448 94.7128 146.624 96.6574C146.745 98.0775 147.963 98.8204 148.369 100.568C148.775 102.316 150.388 102.447 150.388 102.447L148.994 95.0515V95.0624Z" fill="#EE8D55"/>
<path d="M189.301 157.255C189.301 157.255 191.375 142.124 193.273 135.395C193.943 133.035 191.375 125.694 191.375 125.694C191.375 125.694 178.404 120.494 177.537 119.719C173.279 115.895 172.292 99.1699 172.292 99.1699H155.93C155.93 99.1699 155.074 113.372 151.617 119.424C150.75 120.931 137.373 126.798 137.22 126.306L137.483 140.311L141.148 159.221L189.301 157.266V157.255Z" fill="#FCB58A"/>
<path d="M174.003 111.471C172.687 105.659 172.303 99.1699 172.303 99.1699H155.941C155.941 99.1699 155.293 110.007 152.824 116.78C161.625 122.253 172.346 117.359 174.014 111.471H174.003Z" fill="#EE8D55"/>
<path d="M151.749 108.27C152.748 110.28 157.565 115.513 161.483 117.053C162.262 117.359 164.171 117.49 165.653 117.162C170.668 116.048 173.982 111.744 176.166 108.598C177.614 106.522 178.777 102.819 178.997 99.017C179.227 95.2263 179.919 90.2011 179.721 87.2624C179.403 82.7179 176.198 77.6818 172.731 76.5347C163.304 73.4322 148.841 82.1498 148.808 85.3397C148.775 88.3439 148.479 94.254 148.6 98.1868C148.698 101.147 150.805 106.402 151.738 108.259L151.749 108.27Z" fill="#FCB58A"/>
<path d="M172.336 97.7605C172.336 97.7605 171.161 98.3723 169.702 97.9025C169.702 97.9025 170.997 100.415 172.336 97.7605Z" fill="#172031"/>
<path d="M156.457 97.6731C156.457 97.6731 157.587 98.3613 159.079 97.9899C159.079 97.9899 157.62 100.415 156.457 97.6731Z" fill="#172031"/>
<path d="M168.154 106.806C168.506 106.707 167.77 107.429 167.595 107.549C167.364 107.713 167.09 107.876 166.98 107.931C166.432 108.237 165.674 108.499 164.775 108.576C163.622 108.674 162.404 108.455 161.559 108.095C160.714 107.734 160.187 107.276 159.76 106.806C161.559 107.254 166.113 107.352 168.154 106.806Z" fill="#172031"/>
<path d="M161.493 90.3211C161.493 90.3211 162.053 89.5673 161.889 88.606C161.889 88.606 158.574 87.1093 154.393 89.0102C154.393 89.0102 153.933 89.3707 154.701 89.3051C155.469 89.2396 159.727 88.6169 161.493 90.3211Z" fill="#172031"/>
<path d="M167.189 90.3211C167.189 90.3211 166.629 89.5673 166.794 88.606C166.794 88.606 170.108 87.1093 174.289 89.0102C174.289 89.0102 174.75 89.3707 173.982 89.3051C173.213 89.2396 168.956 88.6169 167.189 90.3211Z" fill="#172031"/>
<path d="M164.478 95.3462C164.478 95.3462 165.082 98.7437 165.916 101.245C166.552 103.157 164.391 103.878 164.391 103.878" stroke="#172031" stroke-width="0.57" stroke-linecap="round" stroke-linejoin="round"/>
<path d="M160.286 94.7346C160.286 95.7615 159.617 96.5809 158.794 96.5809C157.971 96.5809 157.302 95.7506 157.302 94.7346C157.302 93.7187 157.971 92.8884 158.794 92.8884C159.617 92.8884 160.286 93.7187 160.286 94.7346Z" fill="#172031"/>
<path d="M172.533 94.7346C172.533 95.7615 171.864 96.5809 171.041 96.5809C170.217 96.5809 169.548 95.7506 169.548 94.7346C169.548 93.7187 170.217 92.8884 171.041 92.8884C171.864 92.8884 172.533 93.7187 172.533 94.7346Z" fill="#172031"/>
<path d="M177.592 86.0826L175.507 79.2331L176.89 78.6759C179.106 77.7911 181.576 78.8944 182.585 81.2432L180.643 87.8087C179.326 86.9784 179.019 86.6725 177.581 86.0826H177.592Z" fill="#172031"/>
<path d="M155.93 80.238C154.602 82.4338 153.121 82.2481 151.222 83.7011C149.335 85.154 147.831 86.5195 147.831 86.5195C147.831 86.5195 145.461 80.97 145.977 80.107C147.403 77.7364 149.73 75.4641 149.73 75.4641L155.93 80.238Z" fill="#172031"/>
<path d="M149.73 77.1355L151.464 78.654L155.436 79.8339C155.831 79.4297 161.834 77.365 167.035 77.7582C173.63 78.2607 175.211 80.1507 175.309 80.2708L175.99 80.1179L179.227 79.4078L181.532 78.9053L178.591 75.2784C174.552 70.286 168.264 67.5221 161.845 68.1776C161.625 68.1994 161.417 68.2213 161.197 68.2541C155.206 69.0406 151.771 71.8482 151.771 71.8482L149.719 77.1355H149.73Z" fill="#172031"/>
<path d="M151.222 81.6472C151.222 81.6472 150.882 88.1581 150.366 89.6985C149.85 91.2388 149.85 96.7228 149.85 96.7228L148.929 93.7951L147.831 86.5195L151.222 81.6472Z" fill="#172031"/>
<path d="M177.537 81.6472C177.537 81.6472 177.877 88.1581 178.393 89.6985C178.909 91.2388 178.909 96.7228 178.909 96.7228L179.831 93.7951L180.928 86.5195L177.537 81.6472Z" fill="#172031"/>
<path d="M154.339 130.621L163.403 124.362L171.743 129.19L164.204 134.554L154.339 130.621Z" fill="#C4C7CF"/>
<path d="M188.412 123.52C188.412 123.52 195.655 125.596 200.483 131.856C205.312 138.115 216.494 159.898 218.502 161.395C220.51 162.892 223.034 160.881 223.034 160.881L228.038 180.764C228.038 180.764 219.544 184.008 213.926 182.348C208.307 180.687 189.784 155.157 186.821 146.767C183.419 137.121 188.412 123.52 188.412 123.52Z" fill="#DFE3EB"/>
<path d="M145.768 131.736C144.89 129.299 138.745 124.11 138.745 124.11C138.745 124.11 131.81 125.465 128.287 130.479C125.566 134.357 111.267 157.681 104.551 170.746C102.576 174.592 102.367 180.524 103.706 183.681C106.318 189.82 110.29 196.113 110.29 196.113C110.29 196.113 117.434 192.956 122.46 188.684C122.46 188.684 121.22 179.42 121.725 177.41C122.23 175.4 136.463 159.636 140.742 153.377C145.022 147.106 147.776 137.285 145.768 131.725V131.736Z" fill="#DFE3EB"/>
<path d="M194.36 155.682C187.051 143.086 188.752 135.188 189.125 123.433L177.548 119.719C175.957 125.869 172.127 127.967 165.312 129.19C157.916 130.523 151.112 128.152 148.786 121.336L138.745 124.121C141.719 138.771 140.391 153.333 134.806 160.477C135.014 174.974 131.887 199.303 131.239 212.117C130.998 216.88 134.564 220.987 139.338 221.435C155.71 222.976 180.511 219.228 194.294 215.471C198.662 214.28 201.438 210.041 200.769 205.573C198.618 191.142 194.086 160.073 194.349 155.682H194.36Z" fill="#71A1E0"/>
<path d="M270.88 153.42C269.376 153.617 268.345 153.748 266.468 153.857C264.581 153.956 263.396 153.628 263.396 153.628C263.396 153.628 265.206 153.256 267.214 152.492C270.781 151.126 272.043 150.645 273.458 150.241C275.236 149.739 276.334 148.756 276.377 147.936C276.443 146.866 275.115 146.931 273.689 147.226C272.943 147.379 271.988 147.718 268.004 148.69C266.249 149.127 263.681 149.826 263.681 149.826C263.681 149.826 265.382 149.061 267.609 148.045C269.299 147.281 271.527 146.254 272.174 145.948C275.532 144.368 277.248 143.25 277.321 142.594C277.431 141.611 275.818 141.152 273.777 142.234C272.921 142.693 270.539 143.25 267.214 144.451C265.59 145.041 263.999 145.38 262.638 145.566C263.363 145.118 264.175 144.692 265.107 144.298C267.346 143.37 269.793 141.786 270.869 141.425C271.944 141.065 273.974 138.847 272.153 138.454C270.331 138.061 269.53 139.175 266.951 140.213C264.921 141.032 261.036 142.43 259.708 142.846C258.381 143.261 254.66 143.381 252.652 144.823C252.433 144.976 249.744 146.527 249.744 146.527L246.891 155.343C246.891 155.343 246.737 158.511 249.185 159.56C251.544 160.576 254.902 159.942 257.503 159.265C260.103 158.587 261.157 157.55 263.67 157.408C266.183 157.266 269.991 155.791 271.033 155.583C272.065 155.376 273.107 154.993 273.579 154.021C274.051 153.049 272.394 153.213 270.891 153.42H270.88Z" fill="#FCB58A"/>
<path d="M244.938 151.072C244.971 148.887 245.827 145.205 247.418 143.643C249.009 142.092 252.575 139.022 253.673 138.017C255.143 136.662 256.219 135.373 256.219 135.373C256.219 135.373 258.018 135.876 258.161 137.514C258.304 139.153 255.933 141.371 255.275 142.004C254.617 142.638 255.077 144.277 253.903 145.413C252.729 146.549 255.275 147.15 254.573 151.421C254.035 154.709 250.414 156.872 249.887 156.588C245.278 154.087 244.916 153.267 244.949 151.061L244.938 151.072Z" fill="#FCB58A"/>
<path d="M245.497 152.24C238.551 158.216 239.034 156.807 227.764 160.619C225.108 161.515 221.476 163.591 217.712 165.011C217.47 170.419 219.402 175.761 222.727 179.934C232.603 174.646 244.29 166.617 253.442 159.822C251.379 156.228 249.689 152.35 245.497 152.24Z" fill="#FCB58A"/>
<path d="M223.023 160.882C218.634 159.647 217.734 161.286 216.285 165.557C214.837 169.818 216.867 178.175 218.458 180.764C220.049 183.353 225.404 184.074 227.281 183.495C229.157 182.916 231.188 180.972 231.188 179.934C231.188 178.896 230.376 175.531 230.376 175.531L227.281 176.733C227.281 176.733 223.462 172.418 223.495 168.671C223.528 164.924 224.494 161.985 224.494 161.985C224.494 161.985 224.022 161.166 223.023 160.882Z" fill="#C4C7CF"/>
<path d="M149.411 118.659L163.403 124.361L154.679 135.187L146.745 122.384L149.411 118.659Z" fill="#DFE3EB"/>
<path d="M177.395 118.659L163.403 124.361L172.127 135.187L180.072 122.384L177.395 118.659Z" fill="#DFE3EB"/>
<path d="M109.16 191.918C113.593 199.007 116.666 203.825 120.331 209.233C122.087 211.833 127.113 217.546 130.109 217.546C133.895 217.546 133.565 214.422 134.74 212.379C135.903 210.336 139.766 211.002 141.071 210.686C141.708 210.533 142.004 210.227 142.059 209.571C142.114 208.949 141.203 208.107 141.203 208.107C141.203 208.107 143.266 208.949 143.881 207.321C144.66 205.278 141.039 204.808 141.039 204.808C141.039 204.808 144.1 204.655 143.99 203.235C143.881 201.826 139.469 202.438 139.469 202.438C139.469 202.438 140.259 200.723 138.207 200.723C136.155 200.723 134.838 201.007 133.73 201.629C132.622 202.252 130.109 206.338 130.109 206.338C130.109 206.338 126.422 196.473 124.677 192.158C122.669 187.209 121.681 183.67 121.681 183.67L109.193 191.907L109.16 191.918Z" fill="#FCB58A"/>
<path d="M116.831 183.681C112.759 185.483 108.48 187.439 107.393 188.28C106.307 189.121 105.341 189.099 105.747 191.339C106.153 193.578 108.414 198.898 109.028 199.51C109.643 200.122 112.035 199.51 113.912 198.494C115.799 197.478 118.257 193.797 120.924 192.573C123.591 191.35 125.434 190.738 125.851 189.711C126.268 188.684 125.686 184.926 124.644 182.829C123.601 180.731 121.308 181.703 116.831 183.692V183.681Z" fill="#C4C7CF"/>
</g>
<path d="M356.544 328.521H109.162V343.024H356.544V328.521Z" fill="#86B8F9"/>
<path d="M78.9558 312.967H326.337L356.554 328.521H109.162L78.9558 312.967Z" fill="#C0D8F7"/>
<path d="M109.162 343.024L78.9558 327.47V312.967L109.162 328.521V343.024Z" fill="#86B8F9"/>
<path d="M317.055 184.617C317.055 184.617 317.066 184.671 317.088 184.768C317.055 184.704 317.055 184.617 317.055 184.617Z" fill="url(#paint0_linear_2030_2463)"/>
<path d="M321.267 184.292C322.599 182.343 322.871 179.115 322.937 176.559C323.002 174.002 322.631 174.067 322.784 171.36C322.915 168.966 322.446 165.056 322.511 164.059C322.577 163.063 322.26 160.615 321.507 160.777C320.634 160.961 320.383 161.915 320.274 163.149C320.143 164.59 320.667 166.377 320.318 168.143C319.969 169.908 319.783 170.742 319.783 170.742C319.783 170.742 320.711 169.648 320.569 167.623C320.318 164.027 320.001 163.572 320.012 162.185C320.023 160.431 319.554 157.95 318.932 157.723C318.113 157.42 317.295 157.983 317.197 159.369C317.142 160.084 317.513 162.045 317.36 165.955C317.295 167.677 316.88 169.627 316.88 169.627C316.88 169.627 317.808 167.742 317.524 165.467C317.317 163.734 317 161.449 316.935 160.788C316.618 157.874 316.64 156.304 315.691 155.99C314.916 155.73 313.508 155.936 313.901 159.142C314.01 160.041 313.781 163.615 313.956 166.951C314.207 171.598 312.603 172.757 312.603 172.757C312.603 172.757 310.649 179.115 310.245 179.808C309.842 180.501 314.436 182.104 314.436 182.104L317.459 185.451C317.459 185.451 319.892 186.318 321.267 184.303V184.292Z" fill="#FCB58A"/>
<path d="M315.582 171.695C315.058 170.201 315.243 169.876 315.036 167.601C314.818 165.326 313.552 160.55 313.508 159.478C313.476 158.405 311.98 157.593 311.348 158.449C310.289 159.889 311.009 162.207 311.228 164.817C311.402 166.875 311.904 169.594 311.926 170.915C311.948 172.237 311.304 174.782 311.97 176.97C312.526 178.812 312.635 180.035 312.635 180.035L314.774 181.043L316.269 178.866L315.582 171.706V171.695Z" fill="#FCB58A"/>
<path d="M311.446 186.762C310.049 185.43 308.892 183.707 307.845 180.036C307.201 177.815 306.644 175.389 305.084 172.8C304.713 172.183 304.254 170.157 305.597 169.962C306.939 169.767 308.619 172.335 309.1 173.049C309.58 173.764 310.409 174.436 311.271 175.703C312.133 176.97 313.989 174.782 316.422 177.978C318.288 180.436 317.917 185.105 317.47 185.43C313.574 188.246 312.865 188.094 311.457 186.762H311.446Z" fill="#FCB58A"/>
<path d="M312.428 186.242C312.821 192.091 312.963 198.622 312.668 208.793C312.537 213.212 312.919 227.38 312.254 230.131C311.49 233.283 296.496 252.844 292.545 258.704C291.214 260.675 296.288 275.774 304.08 273.662C307.408 272.763 312.341 264.618 316.346 256.278C323.319 241.785 325.6 233.608 325.491 230.066C325.327 224.834 322.937 195.86 321.289 183.892C317.95 183.794 314.622 183.328 312.417 186.242H312.428Z" fill="#FCB58A"/>
<path d="M312.275 191.907C311.26 197.68 311.828 201.709 311.446 210.688C311.249 215.108 311.533 229.286 310.737 232.048C309.831 235.211 292.567 254.945 288.016 260.848C286.478 262.841 294.258 284.808 303.141 282.62C306.939 281.677 312.635 273.478 317.284 265.094C325.371 250.515 326.855 236.586 326.778 233.044C326.669 228.582 324.901 206.886 323.308 193.163C319.783 191.907 315.942 191.603 312.275 191.907Z" fill="#FF6E51"/>
<path d="M210.514 314.616C207.677 314.052 205.156 312.049 202.177 312.958C194.789 315.211 188.23 312.027 184.116 310.9C180.002 309.774 177.579 310.619 174.316 311.182C171.053 311.745 167.921 313.717 164.517 315.125C161.112 316.533 160.544 316.955 160.97 317.941C161.396 318.927 164.375 318.222 165.935 318.222C167.496 318.222 169.198 318.645 171.468 318.082C173.738 317.518 173.88 320.053 176.575 321.039C179.271 322.024 183.821 319.631 186.659 320.757C189.496 321.883 196.567 322.988 196.567 322.988L210.503 314.605L210.514 314.616Z" fill="#FFBCAA"/>
<path d="M269.737 259.668C272.607 253.884 271.527 236.445 271.527 236.445L290.995 235.828C290.995 235.828 295.59 251.739 299.747 262.235L269.737 259.668Z" fill="#FFBCAA"/>
<path d="M250.487 280.237C250.487 280.237 251.797 267.661 257.057 262.495C262.317 257.328 277.114 252.638 285.987 252.043C294.859 251.458 306.699 254.393 311.424 261.433C316.16 268.485 314.654 289.335 316.422 305.788C318.201 322.23 325.032 340.286 325.032 340.286H256.708C256.708 340.286 267.849 325.837 263.277 316.684C261.16 312.438 258.454 304.824 257.886 299.062C256.107 280.854 250.487 280.247 250.487 280.247V280.237Z" fill="#FF6E51"/>
<path d="M349.826 340.286H268.788L275.401 305.56C275.652 303.567 277.245 302.257 279.384 302.257H349.466C353.045 302.257 356.407 305.799 355.981 309.135L349.826 340.286Z" fill="#86B8F9"/>
<path d="M356.537 340.286H275.499L282.112 305.56C282.363 303.567 283.957 302.257 286.096 302.257H356.177C359.757 302.257 363.118 305.799 362.692 309.135L356.537 340.286Z" fill="#C0D8F7"/>
<path d="M276.405 208.782C273.044 213.212 269.683 219.646 267.85 224.682C266.726 227.78 261.226 238.785 264.096 244.742C266.966 250.699 280.29 248.436 280.29 248.436L291.345 237.074L290.21 218.963L276.394 208.793L276.405 208.782Z" fill="#FFBCAA"/>
<path d="M274.648 227.206C276.634 224.249 277.966 221.032 280.607 222.603C283.237 224.184 283.117 228.149 280.53 230.109C277.944 232.07 275.543 233.597 275.543 233.597L274.648 227.206Z" fill="#FFBCAA"/>
<path d="M254.394 266.232C260.964 260.188 265.503 269.828 266.289 273.467C267.075 277.106 268.155 288.967 257.886 299.051C247.617 309.135 236.955 318.504 226.763 321.624C216.581 324.743 196.567 323.01 196.567 323.01C196.567 323.01 195.094 320.638 196.567 314.247C196.567 314.247 215.817 309.027 223.184 305.799C230.55 302.571 247.825 272.287 254.394 266.243V266.232Z" fill="#FF6E51"/>
<path d="M248.436 307.889C254.874 302.744 260.374 296.072 264.434 288.934" stroke="#D15A42" stroke-miterlimit="10"/>
<path d="M297.991 209.703C292.283 201.926 278.588 204.904 273.699 208.782C268.701 212.746 268.559 216.267 269.486 221.216C270.425 226.166 269.443 227.889 269.039 233.597C268.635 239.305 272.073 244.038 273.95 249.356C275.827 254.675 263.735 258.011 266.3 273.467C268.864 288.923 280.672 301.206 299.758 298.726C318.845 296.256 327.117 285.208 325.251 270.066C323.384 254.913 317.328 245.945 313.945 241.807C305.651 231.669 310.813 221.769 307.343 214.75C303.501 206.973 298.001 209.703 298.001 209.703H297.991Z" fill="#172031"/>
<path d="M71.191 118.788L71.5299 128.654C71.6495 132.202 69.4303 135.407 66.0551 136.567L58.2017 139.264C57.3712 139.548 56.8862 140.425 57.132 141.263C57.5041 142.555 58.3412 144.27 60.1551 144.784C60.1551 144.784 54.8265 146.017 51.9828 142.753C51.5443 142.252 50.8267 142.087 50.1889 142.285L39.4586 145.622C35.2993 146.914 30.8544 144.731 29.3661 140.669L24.7152 127.955C23.0143 123.305 25.8779 118.247 30.7614 117.265L61.4374 111.138C66.374 110.149 71.0183 113.796 71.191 118.788Z" fill="white"/>
<path d="M58.5007 126.563C59.0455 126.24 59.298 125.587 59.112 124.98C59.0057 124.624 58.7665 124.334 58.4409 124.156C58.1154 123.978 57.7367 123.938 57.3779 124.044C57.2649 124.077 57.152 124.123 57.0523 124.189C56.5075 124.512 56.255 125.165 56.441 125.772C56.5473 126.128 56.7865 126.418 57.1121 126.596C57.4377 126.774 57.8164 126.814 58.1752 126.708C58.2881 126.675 58.4011 126.629 58.5007 126.563Z" fill="#F18A02"/>
<path d="M50.1823 129.016C50.7271 128.693 50.9796 128.04 50.8002 127.434C50.6939 127.077 50.4547 126.787 50.1292 126.609C49.8036 126.431 49.4249 126.392 49.0661 126.497C48.9532 126.53 48.8402 126.576 48.7405 126.642C48.1957 126.965 47.9432 127.618 48.1226 128.225C48.2289 128.581 48.4681 128.871 48.7937 129.049C49.1193 129.227 49.498 129.267 49.8568 129.161C49.9697 129.128 50.0827 129.082 50.1823 129.016Z" fill="#F18A02"/>
<path d="M41.8637 131.47C42.4085 131.14 42.661 130.494 42.4816 129.887C42.3753 129.531 42.1361 129.241 41.8106 129.063C41.485 128.885 41.1063 128.845 40.7475 128.95C40.6345 128.983 40.5216 129.03 40.4219 129.096C39.8771 129.419 39.6246 130.072 39.8107 130.678C40.0299 131.41 40.8073 131.832 41.5514 131.615C41.6644 131.582 41.7773 131.536 41.877 131.47H41.8637Z" fill="#F18A02"/>
<path d="M109.828 239.01C115.5 226.377 109.78 211.572 97.0527 205.943C84.3251 200.313 69.4092 205.99 63.7372 218.623C58.0651 231.255 63.7848 246.06 76.5125 251.69C89.2401 257.32 104.156 251.643 109.828 239.01Z" fill="white"/>
<path d="M86.7852 250.537C98.8632 250.537 108.654 240.819 108.654 228.831C108.654 216.843 98.8632 207.125 86.7852 207.125C74.7072 207.125 64.916 216.843 64.916 228.831C64.916 240.819 74.7072 250.537 86.7852 250.537Z" fill="#FFBA20"/>
<path d="M77.051 229.383L84.0243 236.673L98.3636 221.357" stroke="white" stroke-width="2.76" stroke-linecap="round" stroke-linejoin="round"/>
<path d="M262.757 122.418H317.015C321.151 122.418 324.512 125.754 324.512 129.859C324.512 133.964 321.151 137.3 317.015 137.3H262.757C258.621 137.3 255.26 133.964 255.26 129.859C255.26 125.754 258.621 122.418 262.757 122.418Z" stroke="white" stroke-miterlimit="10"/>
<path d="M233.424 98.1447C227.782 98.1447 223.198 93.6064 223.198 87.9957C223.198 82.3959 227.771 77.8467 233.424 77.8467C239.065 77.8467 243.649 82.385 243.649 87.9957C243.649 93.5955 239.076 98.1447 233.424 98.1447Z" fill="white"/>
<path d="M252.739 94.8196H249.673V97.8307H252.739V94.8196Z" fill="white"/>
<path d="M346.687 94.8196H256.406V97.8307H346.687V94.8196Z" fill="white"/>
<path d="M356.017 103.322H256.406V106.333H356.017V103.322Z" fill="white"/>
<path d="M302.403 112.724H256.962V115.811H302.403V112.724Z" fill="white"/>
<path d="M330.187 112.724H309.18V115.811H330.187V112.724Z" fill="white"/>
<path d="M316.142 80.3054H249.673V87.9957H316.142V80.3054Z" fill="white"/>
</g>
<defs>
<linearGradient id="paint0_linear_2030_2463" x1="317.015" y1="184.707" x2="317.004" y2="184.739" gradientUnits="userSpaceOnUse">
<stop stop-color="white" stop-opacity="0"/>
<stop offset="1" stop-color="#E0BAD1"/>
</linearGradient>
<clipPath id="clip0_2030_2463">
<rect width="351" height="272" fill="white" transform="translate(12 68)"/>
</clipPath>
<clipPath id="clip1_2030_2463">
<rect width="174.449" height="345.231" fill="white" transform="translate(102.861 68.0793)"/>
</clipPath>
</defs>
</svg>
