<svg width="33" height="33" viewBox="0 0 33 33" fill="none" xmlns="http://www.w3.org/2000/svg">
<g clip-path="url(#clip0_2026_2832)">
<path fill-rule="evenodd" clip-rule="evenodd" d="M32.2552 16.2393C32.2552 7.40325 25.0922 0.239258 16.2552 0.239258C7.41826 0.239258 0.255249 7.40336 0.255249 16.2393C0.255249 25.0753 7.41815 32.2393 16.2552 32.2393C25.0922 32.2393 32.2552 25.0754 32.2552 16.2393ZM12.2673 22.2232H9.27125V12.2372H12.2673V22.2232ZM17.2653 13.5944C18.1883 12.4223 19.4893 11.8913 20.9433 11.8913C22.3983 11.8913 24.2623 12.6173 24.2624 16.5544V22.2224H21.2663V16.7773C21.2663 15.6603 20.9423 14.5433 19.6283 14.5433C18.3144 14.5433 17.2653 15.6603 17.2653 16.8054V22.2234H14.2583V12.2044H17.2653V13.5944ZM12.2553 9.73923C12.2553 10.5672 11.5833 11.2393 10.7553 11.2393C9.92724 11.2393 9.25521 10.5674 9.25521 9.73934C9.25521 8.91133 9.92724 8.23929 10.7553 8.23929C11.5833 8.23929 12.2553 8.91122 12.2553 9.73923Z" fill="#F18A02"/>
</g>
<defs>
<clipPath id="clip0_2026_2832">
<rect width="32" height="32" fill="white" transform="translate(0.255249 0.239258)"/>
</clipPath>
</defs>
</svg>
