<svg width="33" height="33" viewBox="0 0 33 33" fill="none" xmlns="http://www.w3.org/2000/svg">
<path fill-rule="evenodd" clip-rule="evenodd" d="M0.255249 16.2393C0.255249 7.4027 7.41869 0.239258 16.2552 0.239258C25.0918 0.239258 32.2552 7.4027 32.2552 16.2393C32.2552 25.0758 25.0918 32.2393 16.2552 32.2393C7.41869 32.2393 0.255249 25.0758 0.255249 16.2393ZM15.7761 13.2443L15.8096 13.7979L15.25 13.7301C13.2132 13.4702 11.4337 12.5889 9.92281 11.1088L9.18416 10.3744L8.9939 10.9167C8.591 12.1257 8.84841 13.4024 9.68778 14.2611C10.1354 14.7357 10.0347 14.8035 9.2625 14.521C8.9939 14.4306 8.75887 14.3628 8.73649 14.3967C8.65815 14.4758 8.92675 15.504 9.13939 15.9108C9.43038 16.4757 10.0235 17.0293 10.6726 17.357L11.221 17.6169L10.5719 17.6282C9.94519 17.6282 9.92281 17.6395 9.98996 17.8767C10.2138 18.6111 11.0979 19.3907 12.0828 19.7297L12.7767 19.967L12.1723 20.3285C11.277 20.8483 10.225 21.142 9.17297 21.1646C8.66934 21.1759 8.25525 21.2211 8.25525 21.255C8.25525 21.368 9.62063 22.0007 10.4152 22.2493C12.7991 22.9837 15.6306 22.6674 17.757 21.4132C19.2679 20.5206 20.7787 18.7467 21.4838 17.0293C21.8643 16.1141 22.2448 14.4419 22.2448 13.6397C22.2448 13.12 22.2784 13.0522 22.9051 12.4308C23.2745 12.0692 23.6214 11.6737 23.6886 11.5608C23.8005 11.3461 23.7893 11.3461 23.2185 11.5382C22.2672 11.8771 22.1329 11.8319 22.603 11.3235C22.9499 10.9619 23.364 10.3066 23.364 10.1145C23.364 10.0806 23.1961 10.1371 23.0059 10.2388C22.8044 10.3518 22.3568 10.5213 22.021 10.623L21.4167 10.815L20.8683 10.4422C20.5661 10.2388 20.1408 10.0128 19.917 9.94504C19.3462 9.78686 18.4732 9.80945 17.9584 9.99023C16.5595 10.4987 15.6753 11.8093 15.7761 13.2443Z" fill="#F18A02"/>
</svg>
