<svg width="33" height="33" viewBox="0 0 33 33" fill="none" xmlns="http://www.w3.org/2000/svg">
<path d="M13.8799 18.9714L18.6307 16.2391L13.8799 13.5068V18.9714Z" fill="#F18A02"/>
<path d="M16.2553 0.239258C13.0908 0.239258 9.99732 1.17764 7.36613 2.93574C4.73494 4.69385 2.68419 7.1927 1.47318 10.1163C0.262182 13.0399 -0.0546717 16.257 0.562692 19.3607C1.18006 22.4644 2.70391 25.3153 4.94155 27.553C7.17919 29.7906 10.0301 31.3144 13.1338 31.9318C16.2375 32.5492 19.4546 32.2323 22.3782 31.0213C25.3018 29.8103 27.8007 27.7596 29.5588 25.1284C31.3169 22.4972 32.2552 19.4038 32.2552 16.2393C32.2552 11.9958 30.5695 7.92613 27.569 4.92555C24.5684 1.92497 20.4987 0.239258 16.2553 0.239258ZM26.7168 19.6793C26.7168 20.6585 26.3278 21.5977 25.6353 22.2901C24.9429 22.9825 24.0037 23.3716 23.0245 23.3716H9.48602C8.50676 23.3716 7.56761 22.9825 6.87517 22.2901C6.18273 21.5977 5.79372 20.6585 5.79372 19.6793V12.7993C5.79372 11.82 6.18273 10.8808 6.87517 10.1884C7.56761 9.49596 8.50676 9.10695 9.48602 9.10695H23.0245C24.0037 9.10695 24.9429 9.49596 25.6353 10.1884C26.3278 10.8808 26.7168 11.82 26.7168 12.7993V19.6793Z" fill="#F18A02"/>
</svg>
